<svg width="335" height="276" viewBox="0 0 335 276" fill="none" xmlns="http://www.w3.org/2000/svg">
    <path d="M322.395 271.519C322.39 271.536 322.363 271.596 322.24 271.696C322.075 271.832 321.8 271.985 321.399 272.144C320.603 272.459 319.42 272.754 317.922 273.005C314.935 273.506 310.788 273.818 306.196 273.818C301.603 273.818 297.457 273.506 294.469 273.005C292.972 272.754 291.789 272.459 290.992 272.144C290.591 271.985 290.317 271.832 290.151 271.696C290.029 271.596 290.002 271.536 289.996 271.519C290.002 271.502 290.029 271.442 290.151 271.341C290.317 271.206 290.591 271.053 290.992 270.894C291.789 270.578 292.972 270.283 294.469 270.032C297.457 269.532 301.603 269.219 306.196 269.219C310.788 269.219 314.935 269.532 317.922 270.032C319.42 270.283 320.603 270.578 321.399 270.894C321.8 271.053 322.075 271.206 322.24 271.341C322.363 271.442 322.39 271.502 322.395 271.519Z" stroke="#1A1919"/>
    <path d="M312.788 266.552L312.741 266.59L312.732 266.602C311.669 267.555 310.485 268.367 309.211 269.018H303.596C303.581 268.987 303.565 268.958 303.548 268.928L303.539 268.913L303.53 268.899C302.974 268.066 302.238 267.367 301.374 266.854C301.213 266.748 301.054 266.645 300.897 266.544C300.031 265.985 299.244 265.477 298.698 264.747C298.395 264.342 298.197 263.828 298.163 263.334C298.128 262.843 298.255 262.409 298.551 262.098L298.551 262.098L298.553 262.096C299.051 261.568 299.917 261.45 300.887 261.487L300.904 261.488L300.921 261.487C301.407 261.472 301.889 261.583 302.318 261.809C302.602 261.986 302.811 262.278 302.953 262.661C303.097 263.051 303.159 263.505 303.163 263.943C303.166 264.238 303.15 264.52 303.132 264.819C303.122 264.993 303.112 265.174 303.105 265.366C303.086 265.863 303.093 266.398 303.218 266.935L304.205 266.823C304.217 264.239 304.82 261.557 306.765 260.204L306.765 260.204L306.768 260.202C307.05 260.003 307.399 259.857 307.715 259.82C308.022 259.784 308.238 259.853 308.378 259.995C308.513 260.16 308.602 260.356 308.635 260.565L308.637 260.574L308.639 260.583C308.768 261.229 308.725 261.897 308.516 262.523C308.307 263.148 307.938 263.709 307.444 264.152L306.643 264.87L307.708 265.019C308.4 265.116 309.023 264.901 309.553 264.597C310.077 264.299 310.555 263.888 310.96 263.541L310.965 263.537C311.362 263.196 311.797 262.881 312.233 262.694C312.663 262.509 313.05 262.468 313.399 262.598C314.015 262.847 314.371 263.663 314.209 264.433C313.961 265.264 313.466 266.003 312.788 266.552Z" fill="url(#paint0_linear)" stroke="#1A1919"/>
    <path d="M59.5989 273.706C59.5061 273.777 59.3483 273.865 59.1076 273.961C58.598 274.163 57.831 274.355 56.8472 274.52C54.8875 274.848 52.1611 275.054 49.1366 275.054C46.112 275.054 43.3856 274.848 41.426 274.52C40.4421 274.355 39.6752 274.163 39.1656 273.961C38.9249 273.865 38.767 273.777 38.6742 273.706C38.767 273.635 38.9249 273.547 39.1656 273.452C39.6752 273.25 40.4421 273.058 41.426 272.893C43.3856 272.564 46.112 272.359 49.1366 272.359C52.1611 272.359 54.8875 272.564 56.8472 272.893C57.831 273.058 58.598 273.25 59.1076 273.452C59.3483 273.547 59.5061 273.635 59.5989 273.706ZM38.5996 273.636C38.5997 273.636 38.6005 273.637 38.6016 273.639C38.6001 273.637 38.5995 273.636 38.5996 273.636ZM38.5996 273.777C38.5995 273.777 38.6001 273.775 38.6016 273.773C38.6005 273.775 38.5997 273.777 38.5996 273.777ZM59.6715 273.773C59.673 273.775 59.6736 273.777 59.6735 273.777C59.6734 273.777 59.6727 273.775 59.6715 273.773ZM59.6715 273.639C59.6727 273.637 59.6734 273.636 59.6735 273.636C59.6736 273.636 59.673 273.637 59.6715 273.639Z" stroke="black"/>
    <path d="M47.5188 271.881C47.1383 271.311 46.6342 270.834 46.0439 270.483C45.938 270.414 45.8343 270.347 45.733 270.281C45.1584 269.911 44.6657 269.594 44.3237 269.136C44.1424 268.894 44.0245 268.586 44.0041 268.294C43.984 268.005 44.0593 267.77 44.2143 267.607L44.2143 267.607L44.2156 267.605C44.4881 267.317 44.9873 267.232 45.6259 267.256L45.643 267.257L45.6601 267.256C45.9495 267.247 46.236 267.313 46.4919 267.446C46.7941 267.64 46.9598 268.119 46.965 268.709C46.9666 268.899 46.9565 269.075 46.9454 269.268C46.9387 269.384 46.9317 269.505 46.9267 269.639C46.9142 269.973 46.9177 270.343 47.0055 270.72L47.9924 270.608C48.0005 268.912 48.3987 267.222 49.6093 266.378L49.6093 266.378L49.6116 266.377C49.7789 266.259 49.9833 266.175 50.1593 266.154C50.3229 266.135 50.4055 266.173 50.4499 266.215C50.5173 266.299 50.5614 266.399 50.5782 266.504L50.5798 266.513L50.5816 266.523C50.661 266.92 50.6353 267.331 50.5068 267.715C50.3782 268.1 50.1512 268.445 49.8474 268.718L49.0467 269.436L50.1116 269.585C50.6187 269.656 51.0684 269.497 51.4371 269.286C51.7956 269.081 52.1209 268.802 52.3851 268.576L52.395 268.567C52.6526 268.347 52.9241 268.151 53.1885 268.038C53.4378 267.931 53.6394 267.914 53.8102 267.971C53.9858 268.065 54.1251 268.213 54.2072 268.392C54.2919 268.576 54.3111 268.783 54.2624 268.979C54.1391 269.394 53.9169 269.771 53.6159 270.081L53.36 270.312C52.6737 270.931 51.9095 271.459 51.0864 271.884H47.521L47.5188 271.881Z" fill="url(#paint1_linear)" stroke="#1A1919"/>
    <path d="M335 274.499H0V275.169H335V274.499Z" fill="#1A1919"/>
    <path d="M111.938 25.1583C111.815 24.8224 111.703 24.5439 111.616 24.334C111.623 24.3304 111.631 24.3267 111.638 24.323C111.907 24.1889 112.268 24.0099 112.635 23.83C113.003 23.6498 113.375 23.47 113.669 23.3336C113.799 23.2732 113.91 23.2227 113.998 23.1848C114.072 23.3173 114.154 23.5381 114.234 23.8512C114.402 24.5001 114.529 25.4007 114.623 26.3317C114.717 27.2569 114.776 28.1895 114.811 28.8925C114.829 29.2436 114.841 29.5364 114.848 29.7412C114.852 29.8436 114.854 29.924 114.856 29.9785L114.858 30.0405L114.858 30.0561L114.858 30.06L114.858 30.0608L114.858 30.061L115.663 30.2257C114.785 32.3427 113.803 34.1507 112.793 35.6884C113.571 33.1954 113.328 30.4911 112.864 28.3363C112.588 27.0554 112.229 25.9469 111.938 25.1583ZM114.153 23.1224C114.153 23.1224 114.152 23.1228 114.15 23.1233C114.152 23.1226 114.153 23.1223 114.153 23.1224ZM113.941 23.0986C113.936 23.094 113.933 23.0907 113.933 23.0902C113.933 23.0897 113.936 23.092 113.941 23.0986ZM117.642 24.0749C117.27 25.6235 116.842 27.0575 116.371 28.3842C116.578 27.0846 116.454 25.8108 116.242 24.7706C116.084 23.9945 115.874 23.3331 115.703 22.8651C115.666 22.7634 115.631 22.6707 115.598 22.5877L119.978 20.7331C119.746 21.1397 119.438 21.6038 119.12 22.0539C118.779 22.5361 118.434 22.9922 118.173 23.3283C118.043 23.4962 117.934 23.6336 117.859 23.7289C117.821 23.7765 117.791 23.8135 117.771 23.8385L117.748 23.8668L117.742 23.8738L117.741 23.8755L117.74 23.8759L117.74 23.8759L117.74 23.8759L117.669 23.9642L117.642 24.0749ZM106.783 28.1255C106.629 27.7564 106.492 27.4547 106.387 27.2329L109.773 25.2724C110.289 25.9478 110.668 26.8798 110.936 27.9608C111.244 29.2026 111.392 30.5899 111.45 31.8978C111.508 33.2033 111.476 34.4156 111.43 35.3023C111.406 35.7452 111.379 36.1059 111.358 36.355C111.348 36.4796 111.339 36.5762 111.332 36.6413L111.325 36.7147L111.323 36.7327L111.323 36.7369L111.323 36.7378L111.323 36.7379L111.323 36.738L111.323 36.738L111.941 36.9172C111.121 38.0357 110.298 38.9862 109.512 39.7889C108.074 41.2576 106.756 42.2351 105.803 42.8432C105.327 43.1472 104.941 43.3588 104.678 43.4933C104.547 43.5605 104.446 43.6084 104.379 43.6388C104.346 43.6541 104.321 43.665 104.306 43.6717L104.289 43.6788L104.287 43.6799L104.286 43.6801L104.286 43.6801L104.286 43.6802L104.213 43.7102L104.152 43.7622C102.933 44.8015 101.406 45.4205 99.8003 45.5252L99.7991 45.5253C98.5686 45.6086 97.3325 45.5498 96.1157 45.3501C94.2857 45.0322 93.2157 45.3152 92.5995 45.8189C92.4069 45.9765 92.2702 46.1469 92.1736 46.3084C90.7331 45.4187 90.1382 44.1612 89.903 43.0724C89.7717 42.4645 89.7536 41.9103 89.7688 41.5078C89.7764 41.3072 89.7922 41.1462 89.8057 41.0374C89.8124 40.983 89.8185 40.9419 89.8228 40.9155L89.8275 40.8873L89.8284 40.8825L89.8284 40.8821L89.8285 40.8819L89.8285 40.8818L89.8286 40.8814L89.8456 40.7934L89.8304 40.7039C89.7488 40.223 89.6829 39.753 89.6321 39.2937L90.2132 38.655C91.0642 37.7196 92.238 37.1109 93.2284 36.7346C93.4131 36.6645 93.5899 36.6029 93.7553 36.5493C92.8078 38.1991 92.2675 39.956 91.9586 41.3785C91.7684 42.2539 91.6642 43.0106 91.6075 43.5499C91.5791 43.8197 91.5625 44.0355 91.553 44.1852C91.5482 44.26 91.5452 44.3183 91.5434 44.3586L91.5415 44.4053L91.541 44.4182L91.5409 44.4219L91.5409 44.4231L91.5409 44.4235C91.5409 44.4237 91.5408 44.4238 92.0406 44.438L91.5408 44.4238L92.5381 44.4886C92.6979 42.9165 93.5615 40.9318 94.4218 39.2971C94.8469 38.4894 95.2619 37.7841 95.5707 37.2808C95.6071 37.2214 95.642 37.1649 95.6753 37.1113C95.7184 37.2306 95.7632 37.3678 95.8091 37.5221C96.0092 38.1936 96.2058 39.0984 96.38 40.0178C96.5534 40.9337 96.702 41.8499 96.8072 42.5381C96.8598 42.882 96.9015 43.1683 96.93 43.3685C96.9443 43.4685 96.9553 43.547 96.9626 43.6004L96.971 43.6611L96.9731 43.6765L96.9736 43.6802L96.9737 43.6811L96.9737 43.6813L97.4693 43.6146L96.9737 43.6814L97.1723 45.156L97.9045 43.8607C98.3696 43.038 98.5157 42.0617 98.4981 41.0998C98.4804 40.1342 98.2969 39.1445 98.0662 38.2636C97.8349 37.3804 97.5523 36.5919 97.328 36.0248C97.2157 35.7408 97.1176 35.5112 97.0471 35.3518C97.0436 35.344 97.0403 35.3364 97.037 35.3289C97.1637 35.1198 97.3768 34.8409 97.6631 34.5122C98.0303 34.0906 98.4786 33.6304 98.9172 33.201C99.3548 32.7725 99.7777 32.3798 100.091 32.0938C100.167 32.0248 100.237 31.962 100.298 31.9066C100.361 31.9856 100.431 32.0932 100.506 32.2378C100.682 32.5742 100.846 33.0354 100.997 33.596C101.296 34.7143 101.518 36.146 101.68 37.5723C101.842 38.9944 101.941 40.3928 102.001 41.437C102.03 41.9587 102.05 42.3912 102.062 42.6928C102.068 42.8436 102.072 42.9617 102.075 43.0419L102.078 43.133L102.078 43.156L102.078 43.1616L102.079 43.163L102.079 43.1633L102.578 43.1496L102.079 43.1633L103.034 43.3554C104.268 40.6238 103.859 37.3266 103.189 34.7853C102.851 33.5026 102.44 32.3856 102.113 31.5893C101.956 31.207 101.818 30.8977 101.717 30.6784L104.747 28.3348C105.259 29.141 105.644 30.1887 105.926 31.3609C106.257 32.7349 106.437 34.239 106.528 35.6416C106.619 37.0423 106.621 38.3306 106.6 39.2693C106.59 39.7382 106.574 40.119 106.56 40.3818C106.553 40.5132 106.547 40.6151 106.543 40.6837L106.538 40.7612L106.537 40.7803L106.536 40.7848L106.536 40.7858L106.536 40.7859L106.536 40.7859L106.537 40.786L107.492 41.0257C108.933 37.7792 108.58 34.2019 107.899 31.4838C107.557 30.1179 107.127 28.9512 106.783 28.1255ZM89.8433 38.3185L89.5425 38.2739C89.5425 38.2739 89.5425 38.2739 89.5425 38.2739C89.6135 38.2844 89.7106 38.2988 89.8433 38.3185ZM114.159 20.703C112.693 20.1323 111.155 19.7875 109.597 19.6744C111.487 19.3902 113.27 19.2287 114.817 19.1405C116.224 19.0602 117.432 19.0406 118.341 19.0437C117.934 19.2208 117.48 19.4087 117.023 19.5936C116.266 19.8992 115.505 20.1933 114.933 20.4112C114.647 20.52 114.408 20.6097 114.241 20.6722L114.159 20.703ZM103.364 21.0573C104.072 20.841 104.784 20.6474 105.494 20.4742C105.496 20.479 105.497 20.4839 105.499 20.4888C105.505 20.5096 105.513 20.5315 105.523 20.5542C105.543 20.5998 105.571 20.6472 105.607 20.6946C105.679 20.7899 105.78 20.8787 105.914 20.9578C106.177 21.112 106.591 21.2441 107.264 21.3157C107.878 21.3811 109.264 21.6229 110.519 21.8531C110.782 21.9014 111.037 21.9489 111.278 21.9938L110.006 22.5571C106.559 21.507 103.88 21.464 102.04 21.6975C101.665 21.7451 101.324 21.8042 101.02 21.8684C101.789 21.5682 102.573 21.2989 103.364 21.0573ZM99.2193 22.6438C99.2193 22.6438 99.2193 22.6438 99.2193 22.6437C99.2535 22.7078 99.3011 22.797 99.3674 22.9211L99.2193 22.6438ZM105.368 23.6615C106.166 23.7697 106.888 23.8875 107.457 23.988L104.732 25.6025C100.995 24.5942 98.2411 24.7878 96.3941 25.2601C95.4556 25.5001 94.7568 25.8106 94.2867 26.0662C94.0517 26.194 93.8741 26.3079 93.7523 26.3924C93.7104 26.4215 93.675 26.4471 93.6463 26.4685C95.2075 24.8937 97.1136 23.6455 99.1885 22.6584L99.4298 23.4172C101.13 23.2035 103.445 23.4007 105.368 23.6615ZM94.1981 27.3058L94.1991 27.3049L94.1987 27.3053L94.1981 27.3058ZM99.9236 26.9821C100.942 27.033 101.874 27.1145 102.563 27.1848L99.9571 29.2943C96.658 28.6041 94.2619 29.0493 92.6657 29.7023C91.8516 30.0353 91.2527 30.4194 90.853 30.7253C90.7844 30.7778 90.7216 30.828 90.6647 30.8752C91.2159 29.5732 91.943 28.4183 92.8029 27.3926C93.045 27.1038 93.298 26.8247 93.5611 26.5552L94.0426 27.3946C94.7144 27.1578 95.6482 27.0245 96.7021 26.9672C97.7478 26.9104 98.8775 26.9299 99.9236 26.9821ZM90.4348 31.4546C90.4348 31.4546 90.4348 31.4546 90.4348 31.4546C90.4818 31.4954 90.5399 31.5458 90.6117 31.608L90.4348 31.4546ZM90.9881 31.9371L90.989 31.9361L90.9886 31.9365L90.9881 31.9371ZM96.0858 31.0919C96.747 31.0665 97.3485 31.0675 97.836 31.0782C97.4855 31.4573 97.098 31.92 96.7357 32.3698C96.3474 32.8521 95.9825 33.3264 95.7151 33.6797C95.5921 33.8422 95.4895 33.9794 95.4144 34.0804C92.7802 34.2803 91.2554 35.2414 90.3891 36.2249C89.9486 36.725 89.6906 37.2171 89.542 37.5892C89.5315 37.6154 89.5216 37.6411 89.5122 37.6661C89.4302 35.3305 89.7623 33.2955 90.4107 31.5201L90.8131 32.0657C92.3286 31.3986 94.3756 31.1576 96.0858 31.0919ZM93.8764 26.923L93.5631 26.5531C93.5632 26.553 93.5633 26.5529 93.5634 26.5528C93.5849 26.5785 93.6541 26.6606 93.8764 26.923Z" fill="url(#paint2_linear)" stroke="#1A1919"/>
    <path d="M63.0885 224.657C63.0885 224.657 47.3059 223.714 49.1498 234.69C49.1498 234.69 48.7787 236.629 50.5536 237.51C50.5536 237.51 50.5825 236.686 52.1774 236.97C52.7439 237.065 53.3196 237.093 53.8926 237.053C54.6673 237.002 55.404 236.701 55.99 236.196C55.99 236.196 60.434 234.377 62.1617 227.18C62.1617 227.18 63.4367 225.612 63.3866 225.208L60.7201 226.336C60.7201 226.336 61.6298 228.242 60.9154 229.827C60.9154 229.827 60.8281 226.406 60.3174 226.484C60.2135 226.484 58.93 227.147 58.93 227.147C58.93 227.147 60.5 230.469 59.3164 232.882C59.3164 232.882 59.7647 228.789 58.4401 227.385L56.5627 228.489C56.5627 228.489 58.3944 231.919 57.1525 234.718C57.1525 234.718 57.4724 230.424 56.1682 228.753L54.4694 230.07C54.4694 230.07 56.189 233.451 55.1423 235.773C55.1423 235.773 55.0012 230.775 54.0997 230.396C54.0997 230.396 52.6128 231.697 52.3842 232.233C52.3842 232.233 53.5637 234.703 52.8329 235.983C52.8329 235.983 52.3842 232.653 52.0022 232.635C52.0022 232.635 50.5194 234.843 50.3658 236.341C50.44 234.943 50.881 233.589 51.6452 232.413C50.7895 232.574 49.9999 232.979 49.3733 233.578C49.3733 233.578 49.606 232.018 52.0108 231.882C52.0108 231.882 53.2568 230.207 53.5641 230.104C53.5641 230.104 51.1719 229.906 49.7222 230.545C49.7222 230.545 50.9971 229.075 54.0002 229.742L55.6615 228.384C55.6615 228.384 52.5104 227.968 51.1742 228.426C51.1742 228.426 52.7108 227.125 56.1125 228.072L57.9401 226.99C57.9401 226.99 55.2529 226.417 53.6539 226.622C53.6539 226.622 55.3442 225.72 58.4761 226.695L59.7844 226.115C59.7844 226.115 57.8173 225.732 57.2382 225.67C56.6592 225.608 56.6317 225.452 56.6317 225.452C57.8786 225.246 59.1585 225.389 60.3282 225.863C60.3282 225.863 63.1371 224.828 63.0885 224.657Z" fill="#1A1919"/>
    <path d="M154.441 212.333L154.44 211.625C155.996 211.625 157.576 211.596 159.135 211.54L159.166 212.247C157.597 212.304 156.007 212.333 154.441 212.333ZM149.716 212.251C148.152 212.196 146.565 212.111 144.999 212L145.06 211.294C146.616 211.405 148.193 211.489 149.747 211.544L149.716 212.251ZM163.883 211.99L163.821 211.285C165.374 211.172 166.945 211.03 168.492 210.861L168.586 211.564C167.029 211.734 165.447 211.877 163.883 211.99V211.99ZM140.296 211.578C138.736 211.409 137.161 211.209 135.616 210.985L135.74 210.286C137.275 210.509 138.839 210.707 140.389 210.875L140.296 211.578ZM173.265 210.966L173.14 210.267C174.675 210.043 176.228 209.786 177.758 209.505L177.914 210.198C176.374 210.482 174.81 210.74 173.265 210.966V210.966ZM130.966 210.222C129.426 209.94 127.874 209.626 126.354 209.289L126.54 208.601C128.05 208.936 129.591 209.248 131.121 209.528L130.966 210.222ZM182.525 209.26L182.338 208.573C183.853 208.236 185.379 207.867 186.873 207.475L187.091 208.155C185.586 208.549 184.05 208.921 182.525 209.261V209.26ZM121.787 208.188C120.278 207.794 118.759 207.368 117.273 206.921L117.52 206.249C118.997 206.693 120.505 207.117 122.004 207.508L121.787 208.188ZM191.602 206.882L191.354 206.211C192.831 205.765 194.319 205.285 195.776 204.784L196.054 205.445C194.587 205.95 193.089 206.433 191.602 206.882V206.882ZM112.808 205.484C111.34 204.981 109.861 204.443 108.413 203.885L108.72 203.234C110.158 203.788 111.627 204.322 113.085 204.822L112.808 205.484ZM200.425 203.852L200.118 203.2C201.548 202.648 202.984 202.062 204.386 201.459L204.722 202.098C203.311 202.705 201.865 203.295 200.425 203.852V203.852ZM104.094 202.126C102.673 201.516 101.248 200.872 99.8589 200.211L100.223 199.585C101.603 200.241 103.018 200.881 104.43 201.487L104.094 202.126ZM208.94 200.189L208.576 199.563C209.954 198.907 211.334 198.217 212.679 197.514L213.071 198.126C211.717 198.835 210.328 199.529 208.94 200.189V200.189ZM95.7141 198.144C94.3504 197.431 92.9885 196.685 91.6659 195.927L92.0847 195.329C93.3983 196.082 94.7512 196.823 96.1057 197.531L95.7141 198.144ZM217.107 195.915L216.688 195.317C218 194.565 219.316 193.777 220.598 192.975L221.043 193.557C219.752 194.365 218.428 195.158 217.107 195.915L217.107 195.915ZM87.7207 193.566C86.4268 192.757 85.1361 191.915 83.8844 191.063L84.3548 190.498C85.5983 191.344 86.8803 192.18 88.1655 192.984L87.7207 193.566ZM224.873 191.059L224.402 190.493C225.643 189.649 226.885 188.768 228.094 187.875L228.589 188.423C227.372 189.322 226.121 190.209 224.873 191.059V191.059ZM80.163 188.424C78.9481 187.526 77.7368 186.593 76.5624 185.652L77.0813 185.122C78.248 186.057 79.4514 186.984 80.6582 187.875L80.163 188.424ZM232.187 185.654L231.668 185.124C232.834 184.19 233.994 183.221 235.118 182.245L235.66 182.756C234.529 183.738 233.361 184.713 232.187 185.654L232.187 185.654ZM73.088 182.753C71.9593 181.772 70.8347 180.755 69.7455 179.731L70.3095 179.24C71.3915 180.258 72.5087 181.268 73.6301 182.242L73.088 182.753ZM239.002 179.734L238.438 179.243C239.517 178.229 240.589 177.179 241.624 176.123L242.21 176.593C241.167 177.656 240.088 178.712 239.002 179.734V179.734ZM66.5399 176.592C65.4966 175.528 64.4659 174.434 63.4761 173.339L64.0821 172.891C65.065 173.978 66.089 175.066 67.1252 176.122L66.5399 176.592ZM245.276 173.338L244.67 172.89C245.659 171.797 246.634 170.672 247.571 169.548L248.196 169.974C247.253 171.105 246.271 172.237 245.276 173.338ZM60.5597 169.979C59.6167 168.846 58.6866 167.682 57.7952 166.517L58.4386 166.114C59.3241 167.271 60.2479 168.428 61.1848 169.553L60.5597 169.979ZM250.965 166.505L250.321 166.103C251.21 164.94 252.083 163.748 252.917 162.559L253.578 162.938C252.739 164.134 251.859 165.335 250.965 166.505ZM55.1869 162.958C54.3484 161.762 53.525 160.534 52.7395 159.308L53.4165 158.953C54.1967 160.171 55.0148 161.391 55.8475 162.579L55.1869 162.958ZM256.031 159.277L255.354 158.923C256.137 157.698 256.902 156.446 257.627 155.2L258.319 155.529C257.59 156.784 256.82 158.045 256.031 159.277ZM50.4573 155.572C49.7283 154.32 49.0172 153.037 48.344 151.758L49.0505 151.454C49.7193 152.724 50.4256 153.999 51.1496 155.243L50.4573 155.572ZM260.438 151.7L259.731 151.396C260.401 150.121 261.052 148.816 261.665 147.517L262.385 147.795C261.768 149.103 261.113 150.417 260.438 151.7ZM46.4032 147.873C45.7869 146.569 45.1932 145.239 44.6382 143.92L45.3695 143.668C45.9208 144.978 46.5106 146.299 47.1227 147.594L46.4032 147.873ZM264.155 143.82L263.424 143.569C263.978 142.245 264.51 140.895 265.003 139.558L265.745 139.782C265.249 141.129 264.714 142.487 264.155 143.82ZM43.0472 139.894C42.549 138.549 42.0748 137.176 41.6379 135.814L42.3894 135.617C42.8235 136.969 43.2944 138.333 43.7892 139.669L43.0472 139.894ZM267.15 135.7L266.398 135.503C266.83 134.153 267.237 132.773 267.61 131.401L268.37 131.57C267.995 132.951 267.584 134.34 267.15 135.7ZM40.413 131.685C40.037 130.307 39.6876 128.904 39.3739 127.515L40.1407 127.373C40.4521 128.753 40.7993 130.147 41.1725 131.516L40.413 131.685ZM269.403 127.399L268.636 127.258C268.946 125.88 269.228 124.474 269.477 123.081L270.249 123.194C270 124.596 269.715 126.011 269.403 127.399ZM38.5224 123.31C38.2716 121.913 38.0484 120.489 37.8593 119.078L38.6361 118.993C38.8241 120.395 39.0457 121.809 39.295 123.197L38.5224 123.31ZM270.907 118.96L270.13 118.875C270.316 117.474 270.473 116.053 270.596 114.651L271.377 114.707C271.252 116.118 271.095 117.549 270.907 118.96V118.96ZM37.3849 114.825C37.2587 113.412 37.1624 111.976 37.0988 110.558L37.8805 110.53C37.9437 111.938 38.0395 113.364 38.1648 114.768L37.3849 114.825ZM271.658 110.44L270.876 110.412C270.937 109.002 270.968 107.574 270.968 106.167L270.968 105.932H271.751L271.751 106.165C271.751 107.583 271.72 109.02 271.658 110.44ZM37.7825 106.284H37L37.0002 106.165C37.0002 104.785 37.0298 103.386 37.0885 102.011L37.8702 102.038C37.8121 103.405 37.7827 104.794 37.7827 106.167L37.7825 106.284ZM270.865 101.688C270.8 100.283 270.703 98.8565 270.576 97.4496L271.356 97.3918C271.484 98.8083 271.582 100.244 271.647 101.659L270.865 101.688ZM38.1443 97.7995L37.3641 97.7442C37.4872 96.3269 37.6434 94.8958 37.8284 93.4903L38.6055 93.5739C38.4217 94.9701 38.2666 96.3919 38.1443 97.7995ZM270.1 93.2254C269.911 91.8295 269.688 90.4153 269.436 89.0222L270.208 88.908C270.461 90.3104 270.687 91.7341 270.876 93.1397L270.1 93.2254ZM39.2535 89.3687L38.481 89.2567C38.7289 87.8553 39.0119 86.44 39.3223 85.0503L40.0892 85.1903C39.781 86.5708 39.4999 87.9765 39.2535 89.3687L39.2535 89.3687ZM268.584 84.8464C268.27 83.4633 267.921 82.0703 267.547 80.7053L268.307 80.535C268.684 81.909 269.035 83.3118 269.351 84.704L268.584 84.8464ZM41.1106 81.0461L40.3505 80.8781C40.7226 79.5006 41.1314 78.1106 41.5655 76.7465L42.3174 76.9423C41.8862 78.2972 41.4803 79.6779 41.1106 81.0461ZM266.326 76.6055C265.89 75.2537 265.418 73.8905 264.921 72.554L265.663 72.3286C266.163 73.6742 266.639 75.0466 267.077 76.4075L266.326 76.6055ZM43.7071 72.8866L42.9645 72.6633C43.4596 71.3157 43.993 69.9566 44.5499 68.624L45.282 68.8742C44.7287 70.198 44.1988 71.5479 43.7071 72.8866ZM263.336 68.5572C262.78 67.2406 262.188 65.9203 261.578 64.6326L262.297 64.3537C262.912 65.65 263.507 66.9792 264.067 68.3045L263.336 68.5572ZM47.0356 64.9243L46.3153 64.6471C46.9303 63.3395 47.5837 62.0249 48.2571 60.7402L48.9641 61.0433C48.2951 62.3195 47.6463 63.6253 47.0356 64.9243ZM259.645 60.774C258.975 59.5053 258.268 58.2315 257.542 56.9879L258.233 56.6573C258.965 57.9094 259.677 59.1917 260.351 60.4692L259.645 60.774ZM51.0648 57.237L50.3717 56.9084C51.1011 55.6509 51.8695 54.3892 52.6552 53.158L53.333 53.5119C52.5524 54.7347 51.7892 55.9882 51.0648 57.237ZM255.27 53.2803C254.487 52.0619 253.668 50.843 252.835 49.6571L253.495 49.2773C254.334 50.4711 255.159 51.6984 255.947 52.9247L255.27 53.2803ZM55.7652 49.8736L55.1038 49.4952C55.9432 48.2948 56.8211 47.0937 57.7127 45.9254L58.3565 46.3275C57.4708 47.488 56.5991 48.681 55.7652 49.8736ZM250.239 46.1243C249.351 44.9674 248.426 43.811 247.489 42.6878L248.113 42.2614C249.057 43.3922 249.988 44.5561 250.882 45.721L250.239 46.1243ZM61.1028 42.8791L60.4774 42.454C61.4203 41.3188 62.4013 40.1859 63.393 39.0866L63.9994 39.5341C63.0142 40.626 62.0397 41.7514 61.1028 42.8791V42.8791ZM244.588 39.3529C243.601 38.2637 242.575 37.1777 241.541 36.125L242.125 35.6546C243.167 36.7144 244.199 37.8077 245.193 38.9043L244.588 39.3529ZM67.0413 36.2973L66.4556 35.8283C67.4945 34.7666 68.5721 33.7088 69.6588 32.6841L70.2235 33.1741C69.1441 34.1919 68.0735 35.2429 67.0413 36.2973L67.0413 36.2973ZM238.352 33.0089C237.27 31.9927 236.151 30.9839 235.028 30.0104L235.569 29.4993C236.7 30.4794 237.826 31.4949 238.916 32.5179L238.352 33.0089ZM73.5404 30.169L72.9978 29.6589C74.1269 28.6762 75.2943 27.7003 76.4673 26.7578L76.9869 27.2869C75.8216 28.2231 74.662 29.1929 73.5404 30.169ZM231.574 27.1338C230.404 26.1988 229.2 25.2737 227.994 24.3843L228.488 23.8356C229.702 24.7311 230.915 25.6623 232.092 26.6037L231.574 27.1338ZM80.5575 24.5325L80.0615 23.9851C81.2756 23.0857 82.525 22.1977 83.7748 21.3455L84.2459 21.9105C83.0043 22.757 81.7633 23.6393 80.5575 24.5325ZM224.293 21.7662C223.045 20.9188 221.761 20.0837 220.479 19.284L220.923 18.7013C222.214 19.5064 223.506 20.347 224.763 21.2001L224.293 21.7662ZM88.0472 19.4241L87.6013 18.8425C88.8912 18.034 90.2145 17.2396 91.5346 16.4814L91.9542 17.0789C90.6429 17.832 89.3283 18.621 88.0472 19.4241H88.0472ZM216.557 16.9417C215.238 16.188 213.884 15.4486 212.533 14.7441L212.925 14.131C214.284 14.8401 215.647 15.5846 216.975 16.3433L216.557 16.9417ZM95.9611 14.8783L95.5685 14.266C96.9214 13.5563 98.3103 12.8609 99.6961 12.1996L100.061 12.8255C98.6846 13.4825 97.305 14.1732 95.9611 14.8783ZM208.414 12.6944C207.032 12.0395 205.616 11.401 204.205 10.7967L204.54 10.157C205.96 10.7653 207.386 11.4081 208.777 12.0675L208.414 12.6944ZM104.248 10.9249L103.911 10.2859C105.322 9.67749 106.768 9.08618 108.207 8.52839L108.515 9.17897C107.085 9.73297 105.65 10.3203 104.248 10.9249L104.248 10.9249ZM199.913 9.0544C198.475 8.50198 197.006 7.96923 195.545 7.47053L195.822 6.80838C197.292 7.31035 198.772 7.84689 200.219 8.40295L199.913 9.0544ZM112.855 7.59097L112.576 6.9295C114.041 6.42459 115.538 5.93972 117.026 5.4882L117.275 6.15935C115.796 6.60775 114.31 7.08951 112.855 7.59097ZM191.108 6.04806C189.629 5.60449 188.121 5.18235 186.623 4.79338L186.84 4.11325C188.347 4.50481 189.866 4.92972 191.354 5.37623L191.108 6.04806ZM121.755 4.89067L121.536 4.21123C123.041 3.81517 124.577 3.44159 126.1 3.10066L126.288 3.7877C124.775 4.12638 123.25 4.49755 121.755 4.89067ZM182.086 3.70441C180.575 3.37109 179.033 3.06092 177.503 2.78253L177.658 2.08858C179.198 2.36886 180.75 2.68127 182.271 3.01667L182.086 3.70441ZM130.867 2.85235L130.71 2.15908C132.244 1.875 133.808 1.61511 135.358 1.3865L135.484 2.08495C133.944 2.31218 132.391 2.57034 130.867 2.85235ZM172.884 2.02914C171.345 1.80725 169.78 1.61063 168.234 1.44509L168.326 0.742147C169.883 0.908896 171.458 1.10675 173.007 1.33035L172.884 2.02914ZM140.132 1.48673L140.037 0.784135C141.593 0.612722 143.175 0.467405 144.738 0.35266L144.802 1.05802C143.249 1.17223 141.678 1.31635 140.132 1.48673ZM163.562 1.03037C162.011 0.920992 160.434 0.838394 158.875 0.784999L158.905 0.0775752C160.474 0.131487 162.061 0.214605 163.623 0.324675L163.562 1.03037ZM149.488 0.798652L149.456 0.0915826C151.02 0.0331909 152.61 0.00240291 154.181 0L154.182 0.707778C152.622 0.710181 151.042 0.740763 149.488 0.798652Z" fill="#1A1919"/>
    <path d="M235.535 63.3817H233.155C232.685 63.3817 232.305 63.7589 232.305 64.2242V95.874C232.305 96.3393 232.685 96.7165 233.155 96.7165H235.535C236.005 96.7165 236.385 96.3393 236.385 95.874V64.2242C236.385 63.7589 236.005 63.3817 235.535 63.3817Z" fill="#1A1919"/>
    <path d="M112.472 2.49838H220.034C227.211 2.49838 233.006 8.26172 233.006 15.3435V261.655C233.006 268.737 227.211 274.5 220.034 274.5H112.472C105.295 274.5 99.5 268.737 99.5 261.655V15.3435C99.5 8.26172 105.295 2.49838 112.472 2.49838Z" fill="#1A1919" stroke="url(#paint3_linear)" stroke-width="3"/>
    <path d="M215.507 8.16132H199.848V10.0285C199.848 11.1907 199.617 12.3416 199.168 13.4153C198.719 14.489 198.061 15.4646 197.232 16.2862C196.403 17.1078 195.418 17.7594 194.335 18.2037C193.251 18.648 192.09 18.8764 190.918 18.8758H141.119C139.946 18.8764 138.785 18.648 137.702 18.2037C136.618 17.7594 135.634 17.1078 134.805 16.2862C133.975 15.4646 133.318 14.489 132.869 13.4153C132.42 12.3416 132.189 11.1907 132.189 10.0285V8.16132H117.528C114.653 8.16132 111.895 9.29353 109.862 11.3089C107.829 13.3242 106.687 16.0577 106.687 18.9078V258.109C106.687 260.959 107.829 263.693 109.862 265.708C111.895 267.723 114.653 268.856 117.528 268.856H215.507C218.382 268.856 221.139 267.723 223.172 265.708C225.206 263.693 226.348 260.959 226.348 258.109V18.9262C226.35 17.5134 226.072 16.114 225.528 14.8081C224.984 13.5021 224.186 12.3152 223.179 11.3154C222.172 10.3155 220.976 9.52231 219.66 8.9811C218.343 8.43989 216.932 8.16131 215.507 8.16132Z" fill="white"/>
    <path d="M216.745 191.69H117.367V209.384H216.745V191.69Z" fill="url(#paint4_linear)"/>
    <path d="M142.937 151.564L143.481 151.3L143.12 150.815C139.209 145.557 137.516 139.213 138.337 132.933C139.158 126.651 142.442 120.833 147.608 116.539C152.776 112.243 159.482 109.759 166.512 109.547C173.542 109.335 180.418 111.409 185.893 115.384C191.366 119.36 195.073 124.969 196.355 131.188C197.637 137.405 196.415 143.836 192.902 149.316C189.388 154.798 183.81 158.97 177.172 161.063C170.533 163.157 163.283 163.029 156.74 160.703L156.249 160.529L156.095 161.027C155.691 162.331 154.934 163.53 153.886 164.514C152.838 165.498 151.533 166.235 150.085 166.656C148.636 167.076 147.094 167.165 145.598 166.915C144.101 166.664 142.7 166.082 141.52 165.225C140.339 164.368 139.418 163.263 138.832 162.014C138.247 160.764 138.015 159.406 138.153 158.059C138.292 156.713 138.798 155.414 139.63 154.28C140.463 153.146 141.598 152.211 142.937 151.564Z" fill="#FAFAFA" stroke="#1A1919"/>
    <path d="M169.5 162C181.926 162 192 151.926 192 139.5C192 127.074 181.926 117 169.5 117C157.074 117 147 127.074 147 139.5C147 151.926 157.074 162 169.5 162Z" fill="url(#paint5_linear)"/>
    <path d="M167.032 133.601L167.445 134.202L167.857 133.601C169.336 131.446 170.738 129.639 171.851 128.423C172.41 127.812 172.88 127.367 173.241 127.1C173.34 127.028 173.423 126.973 173.493 126.933C173.485 127.023 173.467 127.137 173.436 127.278C173.325 127.781 173.071 128.496 172.68 129.385C171.902 131.154 170.622 133.527 169.016 136.107L168.851 136.371L169.016 136.635C170.622 139.214 171.902 141.587 172.68 143.357C173.071 144.246 173.325 144.961 173.436 145.464C173.467 145.605 173.485 145.719 173.493 145.808C173.423 145.769 173.34 145.714 173.241 145.642C172.88 145.375 172.41 144.93 171.851 144.319C170.738 143.103 169.336 141.296 167.857 139.141L167.445 138.54L167.032 139.141C165.554 141.296 164.151 143.103 163.039 144.319C162.48 144.93 162.009 145.375 161.649 145.642C161.55 145.714 161.466 145.769 161.397 145.808C161.405 145.719 161.422 145.605 161.453 145.464C161.564 144.961 161.819 144.246 162.209 143.357C162.987 141.587 164.267 139.214 165.874 136.635L166.039 136.371L165.874 136.107C164.267 133.527 162.987 131.154 162.209 129.385C161.818 128.496 161.564 127.781 161.453 127.278C161.422 127.137 161.405 127.023 161.397 126.933C161.466 126.973 161.55 127.028 161.649 127.1C162.009 127.367 162.48 127.812 163.039 128.423C164.151 129.639 165.554 131.446 167.032 133.601ZM173.691 126.848C173.691 126.848 173.69 126.848 173.687 126.849C173.69 126.848 173.691 126.848 173.691 126.848ZM173.489 126.721C173.488 126.718 173.488 126.717 173.488 126.716C173.488 126.716 173.488 126.718 173.489 126.721ZM173.488 146.025C173.488 146.025 173.488 146.024 173.489 146.021C173.488 146.024 173.488 146.026 173.488 146.025ZM167.141 132.878C167.105 132.931 167.069 132.983 167.032 133.036L167.445 133.318L167.857 133.036C167.821 132.983 167.785 132.931 167.749 132.878C170.6 128.786 173.136 126.021 173.822 126.38L167.141 132.878ZM173.687 145.893C173.69 145.894 173.691 145.894 173.691 145.894C173.691 145.894 173.69 145.894 173.687 145.893ZM161.198 145.894C161.198 145.894 161.2 145.894 161.203 145.893C161.2 145.894 161.198 145.894 161.198 145.894ZM161.4 146.021C161.401 146.024 161.402 146.025 161.402 146.025C161.402 146.026 161.401 146.024 161.4 146.021ZM161.402 126.716C161.402 126.717 161.401 126.718 161.4 126.721C161.401 126.718 161.402 126.716 161.402 126.716ZM161.203 126.849C161.2 126.848 161.198 126.848 161.198 126.848C161.198 126.848 161.2 126.848 161.203 126.849Z" stroke="#1A1919"/>
    <path d="M170.711 9.21106H154.522C153.729 9.21106 153.086 9.84853 153.086 10.6349V11.622C153.086 12.4084 153.729 13.0459 154.522 13.0459H170.711C171.505 13.0459 172.148 12.4084 172.148 11.622V10.6349C172.148 9.84853 171.505 9.21106 170.711 9.21106Z" fill="#FAFAFA"/>
    <path d="M177.228 13.3063C178.441 13.3063 179.425 12.3313 179.425 11.1286C179.425 9.92586 178.441 8.95087 177.228 8.95087C176.015 8.95087 175.031 9.92586 175.031 11.1286C175.031 12.3313 176.015 13.3063 177.228 13.3063Z" fill="#FAFAFA"/>
    <defs>
        <linearGradient id="paint0_linear" x1="285.12" y1="259.311" x2="295.082" y2="276.111" gradientUnits="userSpaceOnUse">
            <stop stop-color="#F12711"/>
            <stop offset="1" stop-color="#F5AF19"/>
        </linearGradient>
        <linearGradient id="paint1_linear" x1="35.2202" y1="265.65" x2="41.7888" y2="276.74" gradientUnits="userSpaceOnUse">
            <stop stop-color="#F12711"/>
            <stop offset="1" stop-color="#F5AF19"/>
        </linearGradient>
        <linearGradient id="paint2_linear" x1="65.6364" y1="18.5434" x2="97.0982" y2="53.9773" gradientUnits="userSpaceOnUse">
            <stop stop-color="#F12711"/>
            <stop offset="1" stop-color="#F5AF19"/>
        </linearGradient>
        <linearGradient id="paint3_linear" x1="-2.14155" y1="0.998391" x2="242.575" y2="123.365" gradientUnits="userSpaceOnUse">
            <stop stop-color="#F12711"/>
            <stop offset="1" stop-color="#F5AF19"/>
        </linearGradient>
        <linearGradient id="paint4_linear" x1="44.4629" y1="191.69" x2="51.2097" y2="229.86" gradientUnits="userSpaceOnUse">
            <stop stop-color="#F12711"/>
            <stop offset="1" stop-color="#F5AF19"/>
        </linearGradient>
        <linearGradient id="paint5_linear" x1="113.988" y1="117" x2="164.04" y2="167.42" gradientUnits="userSpaceOnUse">
            <stop stop-color="#F12711"/>
            <stop offset="1" stop-color="#F5AF19"/>
        </linearGradient>
    </defs>
</svg>
