<svg width="335" height="227" viewBox="0 0 335 227" fill="none" xmlns="http://www.w3.org/2000/svg">
    <path opacity="0.1"
          d="M9.20651 203.229C14.2911 203.229 18.413 202.662 18.413 201.961C18.413 201.261 14.2911 200.693 9.20651 200.693C4.12189 200.693 0 201.261 0 201.961C0 202.662 4.12189 203.229 9.20651 203.229Z"
          fill="#E58E37"/>
    <path opacity="0.1"
          d="M44.4743 206.812C49.5589 206.812 53.6808 206.244 53.6808 205.544C53.6808 204.844 49.5589 204.276 44.4743 204.276C39.3897 204.276 35.2678 204.844 35.2678 205.544C35.2678 206.244 39.3897 206.812 44.4743 206.812Z"
          fill="#E58E37"/>
    <path opacity="0.1"
          d="M86.0178 201.961C91.1024 201.961 95.2243 201.394 95.2243 200.693C95.2243 199.993 91.1024 199.425 86.0178 199.425C80.9332 199.425 76.8113 199.993 76.8113 200.693C76.8113 201.394 80.9332 201.961 86.0178 201.961Z"
          fill="#E58E37"/>
    <path opacity="0.1"
          d="M30.3581 216.645C33.9736 216.645 36.9046 216.242 36.9046 215.745C36.9046 215.248 33.9736 214.845 30.3581 214.845C26.7425 214.845 23.8115 215.248 23.8115 215.745C23.8115 216.242 26.7425 216.645 30.3581 216.645Z"
          fill="#E58E37"/>
    <path opacity="0.1"
          d="M66.9665 215.745C70.582 215.745 73.513 215.342 73.513 214.845C73.513 214.348 70.582 213.945 66.9665 213.945C63.3509 213.945 60.4199 214.348 60.4199 214.845C60.4199 215.342 63.3509 215.745 66.9665 215.745Z"
          fill="#E58E37"/>
    <path d="M45.1847 193.521L44.4135 202.46C44.1208 201.35 43.762 199.927 43.3766 198.255C42.4022 194.027 41.2587 188.216 40.5804 181.879C39.9018 175.54 39.6907 168.691 40.5722 162.383C41.4543 156.069 43.4243 150.343 47.0677 146.199C58.068 133.689 70.5156 135.192 76.0931 136.735L76.0975 136.736C77.4971 137.11 78.799 137.784 79.9131 138.711C81.0264 139.638 81.9256 140.796 82.5484 142.105C83.4866 144.131 83.8763 146.786 82.3568 149.926C80.8243 153.094 77.3258 156.805 70.3597 160.845C58.538 167.702 52.2413 175.845 48.9019 182.294C47.2333 185.516 46.305 188.311 45.7933 190.306C45.5375 191.304 45.3858 192.101 45.2978 192.653C45.2538 192.928 45.2258 193.142 45.2086 193.289C45.2 193.362 45.1941 193.419 45.1903 193.458L45.1861 193.503L45.1851 193.516L45.1849 193.517L45.1848 193.519L45.1847 193.521Z"
          stroke="#E58E37"/>
    <path d="M74.2047 142.268C74.2047 142.268 36.1379 154.191 44.674 205.258" stroke="#1A1919" stroke-miterlimit="10"/>
    <path d="M51.9729 146.544C51.9729 146.544 57.2144 150.08 55.5386 155.398" stroke="#1A1919" stroke-miterlimit="10"/>
    <path d="M70.386 149.687C70.386 149.687 67.1769 146.422 63.2832 148.223" stroke="#1A1919" stroke-miterlimit="10"/>
    <path d="M55.3388 166.118C55.3388 166.118 49.7122 163.26 48.2574 166.832" stroke="#1A1919" stroke-miterlimit="10"/>
    <path d="M41.415 172.076C41.415 172.076 45.6403 171.74 45.7188 173.765" stroke="#1A1919" stroke-miterlimit="10"/>
    <path d="M65.454 186.989L65.4526 186.992C63.4096 191.682 57.9729 200.548 45.1296 204.77C45.1725 204.684 45.2178 204.594 45.2656 204.498C45.6866 203.658 46.2928 202.459 47.0333 201.021C48.5145 198.145 50.5319 194.32 52.678 190.517C54.8258 186.711 57.0954 182.94 59.0816 180.168C60.0763 178.779 60.987 177.66 61.7651 176.913C62.1547 176.539 62.4952 176.275 62.7821 176.115C63.0754 175.952 63.2587 175.928 63.3595 175.944C64.1809 176.078 64.7918 176.546 65.2586 177.23C65.7323 177.924 66.045 178.827 66.245 179.771C66.7364 182.201 66.4599 184.723 65.454 186.989Z"
          stroke="#E58E37"/>
    <path d="M63.3152 181.302C63.3152 181.302 47.441 204.362 44.3745 205.372" stroke="#1A1919" stroke-miterlimit="10"/>
    <path d="M64.7772 184.898H61.0725" stroke="#1A1919" stroke-miterlimit="10"/>
    <path d="M60.3378 193.335L54.533 193.586" stroke="#1A1919" stroke-miterlimit="10"/>
    <path d="M56.8044 186.588L57.4359 189.617" stroke="#1A1919" stroke-miterlimit="10"/>
    <path d="M50.6287 195.811L50.7428 198.564" stroke="#1A1919" stroke-miterlimit="10"/>
    <path d="M43.6302 204.77C30.7777 200.548 25.3575 191.682 23.3108 186.971L23.3109 186.971L23.3091 186.967C22.3049 184.709 22.0273 182.194 22.5147 179.77C22.7147 178.827 23.0274 177.924 23.501 177.23C23.9678 176.546 24.5786 176.078 25.3999 175.944C25.5006 175.928 25.6841 175.952 25.9776 176.115C26.2645 176.275 26.6049 176.539 26.9946 176.913C27.7727 177.66 28.6834 178.779 29.6781 180.168C31.6643 182.94 33.9338 186.711 36.0817 190.517C38.2278 194.32 40.2451 198.145 41.7264 201.021C42.4669 202.459 43.0731 203.658 43.4941 204.498C43.5419 204.594 43.5873 204.685 43.6302 204.77Z"
          stroke="#E58E37"/>
    <path d="M25.4338 181.302C25.4338 181.302 41.3081 204.362 44.3746 205.372" stroke="#1A1919" stroke-miterlimit="10"/>
    <path d="M23.9755 184.898H27.6802" stroke="#1A1919" stroke-miterlimit="10"/>
    <path d="M28.4111 193.335L34.2196 193.586" stroke="#1A1919" stroke-miterlimit="10"/>
    <path d="M31.9486 186.588L31.3171 189.617" stroke="#1A1919" stroke-miterlimit="10"/>
    <path d="M38.124 195.811L38.0099 198.564" stroke="#1A1919" stroke-miterlimit="10"/>
    <path d="M70.252 212.407L70.242 212.415L70.2324 212.424C69.6734 212.929 69.0509 213.359 68.3808 213.702H65.5216C65.2087 213.237 64.7992 212.846 64.3209 212.554L64.3119 212.548L64.3026 212.543C63.7877 212.258 63.3243 211.888 62.9318 211.449C62.7984 211.261 62.7134 211.027 62.699 210.807C62.6843 210.584 62.7429 210.411 62.8501 210.296C62.939 210.201 63.0692 210.132 63.2633 210.09C63.4626 210.046 63.6931 210.037 63.9534 210.037H63.9627L63.9719 210.037C64.1902 210.029 64.4068 210.079 64.5996 210.181C64.8101 210.324 64.9467 210.668 64.9509 211.129C64.9001 211.684 64.9085 212.242 64.9761 212.795L65.9724 212.736C65.9794 211.331 66.3055 209.971 67.2607 209.3C67.3905 209.209 67.5446 209.147 67.6709 209.132C67.7718 209.12 67.813 209.139 67.8301 209.153C67.8714 209.209 67.8985 209.274 67.9088 209.343L67.9107 209.356L67.9134 209.369C67.9771 209.683 67.9589 210.008 67.8604 210.313L68.3362 210.467L67.8604 210.313C67.7619 210.618 67.5865 210.892 67.3512 211.109L66.5752 211.825L67.6207 211.972C68.065 212.034 68.4555 211.89 68.7669 211.71C69.0669 211.536 69.3382 211.301 69.5523 211.116L69.5649 211.105C69.7729 210.925 69.9872 210.77 70.1911 210.682C70.379 210.601 70.517 210.593 70.6265 210.628C70.7504 210.696 70.8494 210.803 70.9083 210.932C70.9696 211.067 70.9837 211.219 70.9483 211.362C70.8263 211.773 70.5836 212.137 70.252 212.407Z"
          stroke="#E58E37"/>
    <path d="M12.6208 199.995L12.6119 200.002L12.6034 200.009C12.0437 200.508 11.422 200.933 10.7538 201.272H7.89023C7.57815 200.806 7.16786 200.413 6.68795 200.123L6.67895 200.117L6.66973 200.112C6.15184 199.828 5.68669 199.456 5.2946 199.013C5.16525 198.837 5.07985 198.609 5.06513 198.391C5.05022 198.171 5.10811 197.999 5.215 197.884C5.40874 197.677 5.77865 197.603 6.29791 197.625L6.31726 197.625L6.33661 197.625C6.55633 197.617 6.77422 197.667 6.96847 197.77C7.17773 197.911 7.31168 198.25 7.31581 198.714C7.26497 199.269 7.2734 199.829 7.34099 200.382L8.3373 200.324C8.3443 198.918 8.67047 197.559 9.62585 196.888L9.62585 196.888L9.6279 196.886C9.75626 196.795 9.90927 196.733 10.0348 196.718C10.1372 196.706 10.1785 196.727 10.1957 196.741C10.2385 196.798 10.2669 196.864 10.2783 196.934L10.28 196.944L10.2821 196.954C10.3466 197.268 10.3288 197.593 10.2303 197.898C10.1319 198.203 9.95626 198.476 9.72065 198.693L8.93935 199.409L9.98956 199.556C10.4342 199.618 10.8233 199.476 11.1348 199.296C11.4287 199.126 11.6955 198.897 11.9081 198.714C11.9161 198.707 11.924 198.701 11.9319 198.694C12.1429 198.513 12.3576 198.358 12.5618 198.269C12.7486 198.188 12.886 198.179 12.9954 198.213C13.1187 198.282 13.2172 198.389 13.276 198.518C13.3375 198.654 13.3518 198.806 13.3165 198.951C13.1949 199.361 12.9524 199.725 12.6208 199.995Z"
          stroke="#E58E37"/>
    <path d="M31.8287 212.407L31.8187 212.415L31.8091 212.424C31.2501 212.929 30.6276 213.359 29.9575 213.702H27.0983C26.7853 213.237 26.3758 212.846 25.8976 212.554L25.8885 212.548L25.8793 212.543C25.3644 212.258 24.901 211.888 24.5085 211.449C24.375 211.261 24.29 211.027 24.2756 210.807C24.2609 210.584 24.3196 210.411 24.4267 210.296C24.5153 210.201 24.646 210.133 24.8411 210.09C25.0411 210.046 25.2717 210.037 25.5301 210.037H25.539L25.5478 210.037C25.7678 210.029 25.9858 210.079 26.1804 210.182C26.3891 210.323 26.5234 210.665 26.5276 211.129C26.4767 211.684 26.4852 212.242 26.5528 212.795L27.5491 212.736C27.5561 211.331 27.8822 209.971 28.8373 209.3C28.9671 209.209 29.1212 209.147 29.2476 209.132C29.3484 209.12 29.3896 209.139 29.4067 209.153C29.4481 209.209 29.4752 209.274 29.4855 209.343L29.4874 209.356L29.49 209.369C29.5538 209.683 29.5355 210.008 29.437 210.313C29.3385 210.618 29.1631 210.892 28.9279 211.109L28.1519 211.825L29.1973 211.972C29.6417 212.034 30.0322 211.89 30.3435 211.71C30.6436 211.536 30.9149 211.301 31.1289 211.116L31.1416 211.105C31.3496 210.925 31.5638 210.77 31.7678 210.682C31.9557 210.601 32.0937 210.593 32.2032 210.628C32.3271 210.696 32.4261 210.803 32.485 210.932L32.9401 210.725L32.485 210.932C32.5463 211.067 32.5603 211.219 32.5249 211.362C32.4029 211.773 32.1603 212.137 31.8287 212.407Z"
          stroke="#E58E37"/>
    <path d="M86.6167 187.702C86.6167 187.702 87.8504 189.32 86.0462 191.76C84.242 194.2 82.7587 196.261 83.3577 197.782C83.3577 197.782 86.0783 193.25 88.2925 193.185C90.5068 193.121 89.052 190.428 86.6167 187.702Z"
          fill="#E58E37"/>
    <path opacity="0.1"
          d="M86.6169 187.702C86.7243 187.859 86.8095 188.03 86.87 188.21C89.0308 190.753 90.179 193.124 88.1038 193.185C86.1676 193.242 83.8499 196.707 83.2937 197.582C83.3115 197.65 83.3329 197.714 83.3579 197.782C83.3579 197.782 86.0785 193.25 88.2927 193.185C90.507 193.121 89.0522 190.428 86.6169 187.702Z"
          fill="#1A1919"/>
    <path d="M88.9095 189.763C88.9095 190.331 88.8453 190.792 88.7668 190.792C88.6884 190.792 88.6241 190.331 88.6241 189.763C88.6241 189.195 88.7062 189.463 88.7847 189.463C88.8632 189.463 88.9095 189.195 88.9095 189.763Z"
          fill="#37E58E"/>
    <path d="M89.698 190.442C89.1985 190.713 88.7633 190.878 88.7276 190.799C88.6919 190.721 89.0629 190.442 89.5624 190.181C90.0619 189.92 89.8621 190.106 89.9013 190.181C89.9406 190.256 90.1974 190.171 89.698 190.442Z"
          fill="#37E58E"/>
    <path d="M80.0988 187.702C80.0988 187.702 78.8651 189.32 80.6693 191.76C82.4735 194.2 83.9604 196.261 83.3578 197.782C83.3578 197.782 80.6372 193.25 78.4229 193.185C76.2087 193.121 77.6777 190.428 80.0988 187.702Z"
          fill="#E58E37"/>
    <path opacity="0.1"
          d="M80.0988 187.702C79.9918 187.859 79.9078 188.029 79.8492 188.21C77.6884 190.753 76.5367 193.124 78.6119 193.185C80.5481 193.242 82.8693 196.707 83.4255 197.582C83.4041 197.65 83.3828 197.714 83.3578 197.782C83.3578 197.782 80.6372 193.25 78.4229 193.185C76.2087 193.121 77.6777 190.428 80.0988 187.702Z"
          fill="#1A1919"/>
    <path d="M77.806 189.763C77.806 190.331 77.8703 190.792 77.9487 190.792C78.0272 190.792 78.0914 190.331 78.0914 189.763C78.0914 189.195 78.013 189.463 77.9345 189.463C77.856 189.463 77.806 189.195 77.806 189.763Z"
          fill="#37E58E"/>
    <path d="M77.0182 190.442C77.5177 190.713 77.9529 190.878 77.9922 190.799C78.0314 190.721 77.6532 190.442 77.1574 190.181C76.6615 189.92 76.8541 190.106 76.8006 190.181C76.7471 190.256 76.5223 190.171 77.0182 190.442Z"
          fill="#37E58E"/>
    <path d="M78.1982 197.568C78.1982 197.568 81.6498 197.464 82.6874 196.721C83.725 195.978 87.9931 195.093 88.2534 196.282C88.5137 197.471 93.4343 202.197 89.5406 202.229C85.6469 202.261 80.4945 201.622 79.4569 200.99C78.4193 200.358 78.1982 197.568 78.1982 197.568Z"
          fill="#A8A8A8"/>
    <path opacity="0.2"
          d="M89.6119 201.815C85.7182 201.847 80.5623 201.208 79.5247 200.575C78.7331 200.093 78.4193 198.364 78.3159 197.564H78.1982C78.1982 197.564 78.4193 200.354 79.4569 200.986C80.4945 201.618 85.6469 202.258 89.5406 202.226C90.6673 202.226 91.0524 201.815 91.031 201.222C90.8706 201.586 90.4463 201.808 89.6119 201.815Z"
          fill="#1A1919"/>
    <path d="M334.369 221.664C334.321 221.691 334.262 221.72 334.189 221.753C333.835 221.911 333.278 222.079 332.505 222.251C330.968 222.592 328.683 222.925 325.716 223.244C319.788 223.88 311.199 224.455 300.574 224.938C279.328 225.903 249.971 226.5 217.54 226.5C185.11 226.5 155.753 225.903 134.507 224.938C123.882 224.455 115.293 223.88 109.365 223.244C106.398 222.925 104.112 222.592 102.575 222.251C101.803 222.079 101.246 221.911 100.891 221.753C100.819 221.72 100.76 221.691 100.712 221.664C100.76 221.637 100.819 221.607 100.891 221.574C101.246 221.416 101.803 221.248 102.575 221.076C104.112 220.735 106.398 220.402 109.365 220.084C115.293 219.447 123.882 218.872 134.507 218.39C155.753 217.424 185.11 216.827 217.54 216.827C249.971 216.827 279.328 217.424 300.574 218.39C311.199 218.872 319.788 219.447 325.716 220.084C328.683 220.402 330.968 220.735 332.505 221.076C333.278 221.248 333.835 221.416 334.189 221.574C334.262 221.607 334.321 221.637 334.369 221.664ZM100.549 221.547C100.549 221.547 100.549 221.548 100.55 221.549C100.549 221.548 100.549 221.547 100.549 221.547ZM100.549 221.78C100.549 221.78 100.549 221.779 100.55 221.778C100.549 221.779 100.549 221.78 100.549 221.78Z"
          stroke="#1A1919"/>
    <path d="M242.646 83.9291L242.604 84.4273L242.617 84.4285L242.631 84.4289L242.646 83.9291ZM242.646 83.9291C242.604 84.4273 242.604 84.4273 242.604 84.4273L242.603 84.4273L242.601 84.4271L242.593 84.4264L242.56 84.4236L242.43 84.4126L241.936 84.3707C241.51 84.3345 240.899 84.2824 240.161 84.2193C238.684 84.093 236.697 83.9221 234.653 83.7437C230.576 83.3878 226.25 82.9997 225.343 82.8781C224.424 82.7546 222.086 82.2415 220.009 81.7676C218.964 81.5291 217.974 81.2981 217.246 81.1267C216.882 81.0411 216.584 80.9703 216.376 80.9209L216.136 80.8637L216.097 80.8543C215.427 80.8162 214.786 80.5705 214.262 80.1509C213.726 79.7217 213.341 79.1329 213.161 78.4699C213.029 78.0124 212.478 76.7944 211.687 75.1657C210.906 73.5552 209.917 71.595 208.945 69.6957C207.974 67.7969 207.021 65.961 206.31 64.5997C205.955 63.9191 205.66 63.3572 205.454 62.9655C205.363 62.7921 205.289 62.652 205.236 62.5497C205.153 62.5293 205.048 62.5037 204.923 62.4737C204.587 62.3928 204.104 62.2807 203.524 62.1561C202.362 61.9066 200.813 61.6083 199.255 61.4098C197.688 61.2102 196.148 61.1165 194.988 61.2594C194.406 61.3311 193.962 61.4578 193.666 61.6292C193.385 61.7918 193.265 61.9736 193.237 62.1853C193.195 62.501 193.233 62.9586 193.367 63.5585C193.5 64.1503 193.717 64.8455 194.004 65.6212C194.579 67.1725 195.422 69.0096 196.379 70.9254C198.293 74.7541 200.648 78.8536 202.194 81.5336C203.947 84.489 206.233 87.0925 208.935 89.2113L208.935 89.2116C209.367 89.5512 209.897 89.7417 210.446 89.755L210.448 89.7551C211.446 89.782 213.115 89.854 214.871 90.0472C216.618 90.2392 218.492 90.5551 219.882 91.0839M242.646 83.9291C242.631 84.4289 242.631 84.4289 242.631 84.4289L242.631 84.4289L242.632 84.4289L242.635 84.429L242.645 84.4293L242.681 84.43C242.692 84.4302 242.704 84.4304 242.718 84.4306C242.744 84.431 242.776 84.4313 242.813 84.4315C242.926 84.4321 243.087 84.4312 243.281 84.4255C243.668 84.4143 244.193 84.3839 244.737 84.3062C245.276 84.2294 245.862 84.1026 246.355 83.8871C246.835 83.6778 247.331 83.3392 247.517 82.7793L247.043 82.6218C247.478 81.3145 255.055 74.4458 259.44 80.4394M255.839 88.4547C253.343 84.8828 250.441 85.8865 250.441 87.7903C250.441 89.1759 248.325 89.1784 246.671 89.1804C246.052 89.1812 245.497 89.1818 245.142 89.2548C244.429 89.4012 241.976 90.0549 239.854 90.6263L255.839 88.4547ZM255.839 88.4547L256.249 88.1683C256.249 88.1682 256.249 88.1682 256.249 88.1681L255.839 88.4547ZM219.882 91.0839L247.517 82.7797C247.538 82.7161 247.646 82.5293 247.9 82.2317C248.139 81.952 248.47 81.617 248.875 81.2629C249.687 80.5538 250.771 79.7897 251.966 79.2482C253.164 78.7054 254.438 78.4018 255.648 78.5636C256.838 78.7229 258.015 79.3389 259.037 80.7343M219.882 91.0839C219.882 91.084 219.882 91.0841 219.883 91.0842L219.705 91.5515L219.882 91.0839ZM259.44 80.4394L259.036 80.734C259.036 80.7341 259.036 80.7342 259.037 80.7343M259.44 80.4394C259.845 80.9938 260.113 81.6359 260.223 82.3136C260.333 82.9913 260.283 83.6855 260.075 84.3399L259.037 80.7343M259.44 80.4394L259.037 80.7347C259.037 80.7346 259.037 80.7345 259.037 80.7343M232.291 91.3811C232.291 91.3811 232.291 91.3811 232.291 91.3811L232.324 91.8801L232.291 91.3811Z"
          fill="white" stroke="#1A1919"/>
    <path d="M262.42 197.507L262.42 197.505C262.378 197.037 262.347 196.571 262.333 196.114V196.096V196.086L262.332 196.076C262.318 195.728 262.311 195.378 262.311 195.025C262.311 187.342 265.358 179.973 270.781 174.541C276.204 169.109 283.559 166.057 291.228 166.057C298.897 166.057 306.252 169.109 311.675 174.541C317.098 179.973 320.145 187.342 320.145 195.025V195.049C320.132 202.51 317.245 209.679 312.087 215.061C306.929 220.443 299.897 223.623 292.456 223.94C285.015 224.257 277.739 221.685 272.144 216.761C266.548 211.837 263.065 204.94 262.42 197.507Z"
          fill="#75420F" stroke="#1A1919"/>
    <path d="M291.228 211.105C300.09 211.105 307.273 203.909 307.273 195.032C307.273 186.155 300.09 178.958 291.228 178.958C282.366 178.958 275.183 186.155 275.183 195.032C275.183 203.909 282.366 211.105 291.228 211.105Z"
          fill="white"/>
    <path d="M291.228 204.676C296.545 204.676 300.855 200.358 300.855 195.032C300.855 189.706 296.545 185.388 291.228 185.388C285.911 185.388 281.601 189.706 281.601 195.032C281.601 200.358 285.911 204.676 291.228 204.676Z"
          fill="#75420F"/>
    <path d="M213.975 139.071L143.14 140.5V130.042C143.774 121.623 152.41 118.669 160.255 117.744C166.388 117.046 172.597 117.513 178.557 119.119C193.586 123.105 203.16 123.877 207.877 123.952C208.913 123.967 209.911 124.341 210.704 125.008C211.496 125.676 212.035 126.597 212.228 127.617C212.452 128.813 212.673 130.117 212.88 131.403C213.037 132.41 213.187 133.403 213.322 134.328C213.714 136.993 213.975 139.071 213.975 139.071Z"
          fill="#75420F"/>
    <path d="M270.487 196.436H270.487C273.347 196.439 276.177 195.855 278.801 194.719C281.426 193.582 283.79 191.918 285.748 189.83C287.705 187.741 289.213 185.272 290.179 182.576C291.145 179.879 291.548 177.013 291.364 174.154C291.261 172.62 291.133 171.021 290.976 169.372C289.322 151.935 284.408 128.438 271.228 105.55L265.422 105.991L265.422 105.991L256.553 106.653C256.61 106.785 256.675 106.937 256.748 107.108C257.052 107.825 257.486 108.871 258.005 110.192C260.095 115.498 263.565 125.254 265.508 135.872C267.447 146.471 267.884 158.025 263.813 166.87L263.813 166.87C263.252 168.086 262.78 169.344 262.309 170.623L262.308 170.628C261.636 172.396 259.992 175.238 255.785 178.151L255.783 178.153C250.989 181.433 245.313 183.174 239.507 183.145C239.507 183.145 239.506 183.145 239.506 183.145L208.979 183.145H208.72L208.571 182.933L208.979 182.645C208.571 182.933 208.57 182.933 208.57 182.932L208.57 182.931L208.567 182.928L208.559 182.916L208.53 182.874C208.505 182.837 208.469 182.783 208.423 182.713C208.332 182.573 208.201 182.367 208.041 182.099C207.722 181.564 207.287 180.783 206.819 179.792C205.883 177.811 204.811 174.983 204.267 171.592C203.176 164.791 204.219 155.759 212.659 146.822L212.68 146.8L270.487 196.436ZM270.487 196.436L123.336 196.436L123.331 196.436M270.487 196.436L123.331 196.436M212.702 146.782L212.702 146.782L212.702 146.782ZM212.702 146.782L212.703 146.781L212.706 146.779L212.72 146.767C212.733 146.755 212.753 146.738 212.779 146.715C212.831 146.67 212.909 146.601 213.006 146.511C213.2 146.331 213.474 146.066 213.787 145.734C214.414 145.067 215.189 144.135 215.799 143.062C216.412 141.986 216.839 140.802 216.82 139.621C216.802 138.461 216.353 137.255 215.121 136.104C214.317 135.384 213.411 134.786 212.434 134.331M212.702 146.782L212.434 134.331M123.331 196.436C122.293 196.446 121.275 196.151 120.403 195.586C119.532 195.022 118.846 194.215 118.429 193.264C117.93 192.066 118.043 191.136 118.425 190.398C118.821 189.635 119.535 189.023 120.322 188.55C123.809 186.479 126.452 183.24 127.784 179.405L127.785 179.401M123.331 196.436L127.785 179.401M127.785 179.401C129.373 174.703 130.911 167.39 131.516 156.007L131.516 156.007M127.785 179.401L131.516 156.007M131.516 156.007C132.13 144.388 136.314 138.756 140.727 136.047C143.595 134.29 146.609 133.736 148.918 133.626C150.071 133.57 151.042 133.626 151.724 133.694C152.064 133.729 152.331 133.767 152.512 133.795C152.602 133.81 152.67 133.822 152.715 133.83C152.738 133.834 152.755 133.838 152.765 133.84L152.776 133.842L152.778 133.842L152.779 133.842M131.516 156.007L152.779 133.842M152.779 133.842L152.779 133.842M152.779 133.842L152.779 133.842M152.779 133.842L152.779 133.842M152.779 133.842L152.779 133.842M152.779 133.842L152.827 133.853M152.779 133.842L152.827 133.853M152.827 133.853L152.877 133.853M152.827 133.853L152.877 133.853M152.877 133.853L212.434 134.331M152.877 133.853L212.434 134.331"
          fill="#E58E37" stroke="#1A1919"/>
    <path opacity="0.1" d="M213.326 134.328H143.14V131.403H212.884C213.041 132.392 213.19 133.385 213.326 134.328Z"
          fill="#1A1919"/>
    <path opacity="0.1"
          d="M215.462 135.757H141.032C140.839 135.757 140.647 135.719 140.469 135.643C146.391 132.013 152.884 133.374 152.884 133.374L212.548 133.853C213.61 134.336 214.593 134.978 215.462 135.757Z"
          fill="#1A1919"/>
    <path d="M216.082 132.099H114.989C114.183 132.099 113.53 132.753 113.53 133.56V133.564C113.53 134.37 114.183 135.025 114.989 135.025H216.082C216.887 135.025 217.54 134.37 217.54 133.564V133.56C217.54 132.753 216.887 132.099 216.082 132.099Z"
          fill="white"/>
    <path opacity="0.1"
          d="M291.474 169.332C288.083 173.026 285.587 174.479 285.705 170.582C286.061 158.795 265.381 105.503 265.381 105.503L271.496 105.039C284.842 128.074 289.805 151.762 291.474 169.332Z"
          fill="#1A1919"/>
    <path opacity="0.1"
          d="M320.466 191.803C316.954 192.646 312.622 193.503 307.273 194.303C305.284 194.596 303.144 194.877 300.855 195.146C295.389 195.796 289.067 196.364 281.765 196.8C279.697 196.924 277.549 197.037 275.322 197.139C271.15 197.33 266.684 197.475 261.925 197.575L261.836 196.146V196.121C268.486 193.432 278.951 186.256 280.634 167.564C284.837 165.942 289.355 165.307 293.841 165.71C298.327 166.112 302.661 167.54 306.51 169.884C310.358 172.229 313.618 175.426 316.038 179.231C318.458 183.036 319.974 187.347 320.47 191.831L320.466 191.803Z"
          fill="#1A1919"/>
    <path d="M320.349 190.601C309.744 193.154 291.47 195.805 260.609 196.371C260.915 196.266 261.234 196.15 261.562 196.023C264.598 194.854 268.524 192.748 272.08 189.002C279.074 181.635 284.529 168.051 279.249 143.159C279.681 143.553 280.223 144.047 280.856 144.623C282.583 146.193 284.994 148.375 287.73 150.824C293.199 155.72 299.971 161.686 305.17 165.951C310.379 170.224 317.616 175.299 323.54 179.3C326.505 181.301 329.145 183.037 331.043 184.272C331.992 184.889 332.757 185.382 333.284 185.72C333.356 185.766 333.423 185.809 333.486 185.85C333.075 186.12 332.403 186.515 331.382 186.996C329.336 187.96 325.894 189.266 320.349 190.601Z"
          fill="#E58E37" stroke="#1A1919"/>
    <path opacity="0.1"
          d="M320.349 190.601C309.744 193.154 291.47 195.805 260.609 196.371C260.915 196.266 261.234 196.15 261.562 196.023C264.598 194.854 268.524 192.748 272.08 189.002C279.074 181.635 284.529 168.051 279.249 143.159C279.681 143.553 280.223 144.047 280.856 144.623C282.583 146.193 284.994 148.375 287.73 150.824C293.199 155.72 299.971 161.686 305.17 165.951C310.379 170.224 317.616 175.299 323.54 179.3C326.505 181.301 329.145 183.037 331.043 184.272C331.992 184.889 332.757 185.382 333.284 185.72C333.356 185.766 333.423 185.809 333.486 185.85C333.075 186.12 332.403 186.515 331.382 186.996C329.336 187.96 325.894 189.266 320.349 190.601Z"
          fill="white" stroke="#1A1919"/>
    <path d="M194.994 195.032C194.994 211.031 182.047 224 166.077 224C150.108 224 137.161 211.031 137.161 195.032C137.161 179.033 150.108 166.064 166.077 166.064C182.047 166.064 194.994 179.033 194.994 195.032Z"
          fill="#75420F" stroke="#1A1919"/>
    <path d="M166.077 211.105C174.939 211.105 182.123 203.909 182.123 195.032C182.123 186.155 174.939 178.958 166.077 178.958C157.216 178.958 150.032 186.155 150.032 195.032C150.032 203.909 157.216 211.105 166.077 211.105Z"
          fill="white"/>
    <path d="M166.077 204.676C171.394 204.676 175.705 200.358 175.705 195.032C175.705 189.706 171.394 185.388 166.077 185.388C160.76 185.388 156.45 189.706 156.45 195.032C156.45 200.358 160.76 204.676 166.077 204.676Z"
          fill="#75420F"/>
    <path opacity="0.1"
          d="M199.059 186.181C199.059 167.153 183.973 151.727 165.364 151.727C146.755 151.727 131.669 167.153 131.669 186.181C131.669 186.986 131.696 187.782 131.751 188.57H198.977C199.032 187.782 199.059 186.986 199.059 186.181Z"
          fill="#1A1919"/>
    <path d="M165.364 152.909C182.999 152.909 197.312 167.53 197.312 185.588C197.312 186.193 197.294 186.791 197.262 187.388H133.466C133.434 186.791 133.417 186.193 133.417 185.588C133.417 167.53 147.73 152.909 165.364 152.909Z"
          fill="#E58E37" stroke="#1A1919"/>
    <path opacity="0.1"
          d="M197.812 185.588C197.812 186.12 197.812 186.659 197.772 187.174C197.772 187.413 197.747 187.649 197.733 187.888H132.995C132.995 187.649 132.967 187.413 132.956 187.174C132.931 186.649 132.917 186.102 132.917 185.588C132.917 167.264 147.443 152.409 165.364 152.409C183.285 152.409 197.812 167.264 197.812 185.588Z"
          fill="white"/>
    <path opacity="0.1"
          d="M197.772 187.192C197.772 187.431 197.748 187.667 197.733 187.906H132.995C132.995 187.667 132.967 187.431 132.956 187.192H197.772Z"
          fill="#1A1919"/>
    <path opacity="0.1"
          d="M202.09 188.603H122.526C120.425 188.603 118.722 190.308 118.722 192.412C118.722 194.516 120.425 196.221 122.526 196.221H202.09C204.192 196.221 205.895 194.516 205.895 192.412C205.895 190.308 204.192 188.603 202.09 188.603Z"
          fill="#1A1919"/>
    <path d="M202.09 187.888H122.526C120.425 187.888 118.722 189.594 118.722 191.698C118.722 193.801 120.425 195.507 122.526 195.507H202.09C204.192 195.507 205.895 193.801 205.895 191.698C205.895 189.594 204.192 187.888 202.09 187.888Z"
          fill="white"/>
    <path opacity="0.1"
          d="M285.671 138.198C287.82 137.224 287.579 132.04 285.132 126.619C282.685 121.198 278.959 117.592 276.81 118.566C274.66 119.539 274.901 124.723 277.348 130.145C279.795 135.566 283.521 139.171 285.671 138.198Z"
          fill="#1A1919"/>
    <path d="M285.033 126.467C286.237 129.135 286.889 131.724 286.982 133.741C287.029 134.752 286.935 135.593 286.721 136.221C286.507 136.847 286.192 137.216 285.821 137.384C285.451 137.551 284.966 137.545 284.355 137.292C283.743 137.038 283.051 136.554 282.325 135.851C280.874 134.448 279.364 132.248 278.16 129.58C276.955 126.912 276.304 124.323 276.21 122.305C276.164 121.295 276.258 120.454 276.472 119.826C276.686 119.2 277.001 118.831 277.372 118.663C277.742 118.495 278.227 118.502 278.838 118.755C279.45 119.009 280.142 119.493 280.868 120.196C282.319 121.599 283.829 123.799 285.033 126.467Z"
          fill="white" stroke="#1A1919"/>
    <path opacity="0.1"
          d="M271.442 105.039V110.636H260.567C259.554 110.637 258.543 110.556 257.543 110.393C256.509 107.761 255.814 106.225 255.814 106.225L265.388 105.51L271.442 105.039Z"
          fill="#1A1919"/>
    <path d="M270.942 109.407H260.567C251.253 109.407 243.774 102.451 243.774 93.916V92.4337C243.774 83.9233 251.241 76.9573 260.545 76.9461L270.942 77.892V109.407Z"
          fill="#E58E37" stroke="#1A1919"/>
    <path d="M255.866 95.0195L255.866 95.0195L255.861 95.0274L255.861 95.0274L255.861 95.0276L255.861 95.0278L255.859 95.0306L255.851 95.0442C255.843 95.0567 255.831 95.0761 255.814 95.1018C255.781 95.1533 255.731 95.2302 255.664 95.3287C255.529 95.5258 255.328 95.8089 255.064 96.1475C254.534 96.8256 253.756 97.7216 252.76 98.5941C250.836 100.28 248.151 101.836 244.906 101.649L242.427 86.3634C242.653 86.3449 242.942 86.322 243.282 86.2972C244.137 86.2346 245.306 86.1597 246.569 86.1097C247.833 86.0598 249.186 86.035 250.406 86.0722C251.603 86.1087 252.638 86.2039 253.337 86.3795C253.341 86.3813 253.344 86.3832 253.347 86.3852C253.389 86.4094 253.452 86.4466 253.532 86.4965C253.692 86.5966 253.919 86.7472 254.181 86.946C254.707 87.3456 255.364 87.9309 255.905 88.6819C256.445 89.4314 256.862 90.3323 256.937 91.3723C257.012 92.4069 256.753 93.6244 255.866 95.0195Z"
          fill="#E58E37" stroke="#1A1919"/>
    <path opacity="0.1"
          d="M251.025 85.5971C252.06 85.6364 253.072 85.9078 253.988 86.3912C254.904 86.8746 255.7 87.5578 256.317 88.3903C257.476 89.9977 258.167 92.3408 256.295 95.2876C256.295 95.2876 251.703 102.831 244.482 102.117L241.854 85.9115C241.854 85.9115 247.264 85.3935 251.025 85.5971Z"
          fill="#1A1919"/>
    <path opacity="0.1"
          d="M271.086 77.4355H273.182C274.943 77.4355 276.632 78.1362 277.877 79.3835C279.122 80.6307 279.822 82.3224 279.822 84.0863V103.26C279.822 105.024 279.122 106.716 277.877 107.963C276.632 109.21 274.943 109.911 273.182 109.911H271.086V77.4355Z"
          fill="#1A1919"/>
    <path d="M271.942 77.9355H273.539C275.167 77.9355 276.728 78.5833 277.88 79.7367C279.031 80.8901 279.678 82.4547 279.678 84.0863V103.26C279.678 104.892 279.031 106.456 277.88 107.61C276.728 108.763 275.167 109.411 273.539 109.411H271.942V77.9355Z"
          fill="white" stroke="#1A1919"/>
    <path d="M198.332 120.145L198.334 120.146C200.118 120.834 202.272 121.682 204.201 122.496C206.116 123.305 207.847 124.096 208.761 124.672C209.149 124.916 209.841 125.221 210.772 125.564C211.692 125.903 212.812 126.269 214.036 126.642C216.482 127.387 219.323 128.155 221.759 128.79C225.333 129.717 229.013 130.172 232.704 130.142M198.332 120.145L232.709 130.642M198.332 120.145C197.209 119.716 196.227 119.347 195.526 119.086C195.351 119.021 195.193 118.962 195.054 118.911M198.332 120.145L195.054 118.911M232.704 130.142C232.704 130.142 232.704 130.142 232.705 130.142L232.709 130.642M232.704 130.142C232.704 130.142 232.704 130.142 232.704 130.142L232.709 130.642M232.704 130.142C236.495 130.106 241.091 130.07 242.366 130.07M232.709 130.642C236.502 130.606 241.099 130.57 242.368 130.57M242.366 130.07C242.365 130.07 242.365 130.07 242.364 130.07L242.368 130.57M242.366 130.07C242.615 130.069 242.864 130.087 243.11 130.127L243.113 130.127C243.899 130.258 244.371 130.61 244.608 131.053C244.813 131.436 244.801 131.809 244.779 131.986V131.999V132.281L244.539 132.427C242.663 133.565 240.645 135.725 238.652 138.434C236.666 141.133 234.736 144.333 233.027 147.506C231.318 150.677 229.835 153.811 228.744 156.372C227.643 158.955 226.963 160.903 226.827 161.727L226.826 161.728C226.705 162.457 226.358 163.467 225.896 164.599C225.43 165.741 224.833 167.042 224.192 168.364C222.91 171.01 221.443 173.762 220.475 175.54L220.475 175.54C220.15 176.136 219.882 176.623 219.696 176.96C219.65 177.043 219.609 177.116 219.574 177.18L221.65 179.569L228.438 182.619L228.442 182.621L234.89 185.44L235.094 185.45C235.282 185.459 235.551 185.471 235.874 185.485C236.521 185.513 237.383 185.546 238.249 185.568C239.116 185.591 239.979 185.602 240.629 185.585C240.921 185.578 241.16 185.565 241.333 185.547C241.341 185.432 241.349 185.292 241.355 185.13C241.372 184.741 241.382 184.251 241.39 183.769C241.397 183.288 241.401 182.817 241.403 182.467C241.403 182.348 241.404 182.244 241.404 182.157C240.628 181.64 239.889 181.069 239.192 180.448C237.592 179.052 236.105 177.53 234.746 175.897C233.681 174.628 233.435 173.083 233.624 171.541C233.813 170.006 234.437 168.435 235.163 167.04C235.892 165.64 236.74 164.39 237.403 163.492C237.735 163.042 238.022 162.678 238.227 162.427C238.329 162.301 238.411 162.203 238.468 162.136C238.496 162.102 238.518 162.077 238.534 162.059L238.547 162.044L253.135 143.035C253.146 143.016 253.162 142.989 253.183 142.952C253.228 142.874 253.298 142.755 253.399 142.586C253.602 142.247 253.93 141.708 254.437 140.902C255.45 139.29 257.175 136.607 260.03 132.319C262.807 128.145 262.771 124.997 262.109 122.925C261.774 121.877 261.272 121.081 260.854 120.548C260.646 120.281 260.46 120.082 260.328 119.951C260.264 119.888 260.214 119.841 260.179 119.811L250.221 115.669C241.534 112.413 231.947 109.478 224.527 107.355C220.817 106.294 217.65 105.437 215.411 104.845C214.292 104.549 213.405 104.32 212.798 104.164C212.494 104.086 212.26 104.027 212.103 103.987L211.924 103.942L211.892 103.934L211.623 103.899L211.621 103.899L207.448 103.377L195.054 118.911M242.366 130.07C242.367 130.07 242.367 130.07 242.368 130.07V130.57M242.368 130.57L195.054 118.911"
          fill="#1A1919" stroke="#1A1919"/>
    <path d="M220.475 175.54L220.475 175.54C221.443 173.762 222.91 171.01 224.192 168.364C224.833 167.042 225.43 165.741 225.896 164.599C226.271 163.681 226.57 162.842 226.734 162.169L237.926 162.804C237.772 163.001 237.595 163.232 237.403 163.492C236.74 164.39 235.892 165.64 235.163 167.04C234.437 168.435 233.813 170.006 233.624 171.541C233.435 173.083 233.681 174.628 234.746 175.897C236.105 177.53 237.591 179.052 239.192 180.448C239.889 181.069 240.628 181.64 241.404 182.157C241.404 182.244 241.403 182.348 241.403 182.467C241.401 182.817 241.397 183.288 241.39 183.769C241.382 184.251 241.371 184.741 241.355 185.13C241.348 185.292 241.341 185.432 241.333 185.547C241.16 185.565 240.921 185.578 240.629 185.585C239.979 185.602 239.116 185.591 238.249 185.568C237.383 185.546 236.521 185.513 235.874 185.485C235.551 185.471 235.282 185.459 235.094 185.45L234.89 185.44L228.442 182.621L228.438 182.619L221.65 179.569L219.574 177.18C219.609 177.116 219.65 177.043 219.696 176.96C219.882 176.623 220.15 176.136 220.475 175.54Z"
          fill="white" stroke="#1A1919"/>
    <path d="M234 175L234.056 175.174C234.056 175.174 234.056 175.174 234.056 175.174L234 175ZM234.138 175.431L234.152 175.476L234.185 175.466C234.191 175.47 234.197 175.475 234.204 175.48C234.756 175.892 235.622 176.619 236.542 177.415C237.459 178.207 238.417 179.057 239.147 179.709C239.512 180.035 239.82 180.312 240.037 180.507L240.056 180.524C240.156 180.614 240.236 180.685 240.292 180.736L240.344 180.782C241.446 182.311 243.512 183.411 245.224 184.121C246.103 184.486 246.917 184.759 247.511 184.941C247.808 185.032 248.051 185.1 248.22 185.146C248.305 185.169 248.372 185.186 248.417 185.198L248.47 185.212L248.484 185.215L248.488 185.216L248.489 185.216L248.49 185.216C248.49 185.216 248.49 185.216 248.608 184.731L248.49 185.216L248.59 185.241L248.691 185.224L248.691 185.224L248.692 185.223L248.692 185.223L248.692 185.223L248.698 185.222C248.705 185.221 248.715 185.22 248.73 185.218C248.758 185.214 248.802 185.208 248.859 185.202C248.972 185.191 249.133 185.179 249.323 185.178C249.709 185.175 250.174 185.219 250.574 185.378C250.962 185.532 251.263 185.781 251.408 186.193C251.559 186.625 251.572 187.326 251.168 188.443C251.012 188.876 250.66 189.243 250.081 189.543C249.499 189.845 248.723 190.06 247.795 190.195C245.939 190.464 243.593 190.4 241.265 190.186C238.945 189.973 236.673 189.614 234.979 189.308C234.132 189.155 233.432 189.015 232.943 188.914C232.699 188.864 232.508 188.822 232.378 188.794C232.313 188.78 232.264 188.769 232.231 188.762L232.196 188.754L232.176 188.748L232.073 188.718L231.679 188.601C231.338 188.501 230.85 188.356 230.257 188.179C229.071 187.826 227.469 187.346 225.802 186.837C222.448 185.812 218.897 184.69 217.908 184.249C217.593 184.108 217.409 183.835 217.332 183.399C217.252 182.949 217.302 182.383 217.425 181.799C217.546 181.223 217.729 180.667 217.884 180.252C217.962 180.046 218.031 179.877 218.081 179.76C218.082 179.756 218.084 179.752 218.085 179.748C218.206 179.653 218.284 179.522 218.339 179.41C218.491 179.099 218.668 178.5 218.868 177.313C218.958 176.777 219.11 176.519 219.228 176.399C219.332 176.292 219.442 176.26 219.565 176.261C219.704 176.263 219.855 176.31 219.987 176.371C220.05 176.4 220.102 176.429 220.136 176.45C220.153 176.46 220.166 176.468 220.173 176.473L220.178 176.476L220.178 176.476L220.186 176.482L231.788 184.413L232.428 183.65L232.07 184L232.428 183.65L232.427 183.65L232.426 183.649L232.423 183.645L232.409 183.631L232.356 183.576C232.309 183.528 232.24 183.457 232.152 183.367C231.977 183.186 231.727 182.927 231.431 182.616C230.837 181.993 230.057 181.163 229.306 180.33C228.553 179.494 227.841 178.666 227.377 178.044C227.253 177.878 227.153 177.735 227.076 177.616C227.383 177.539 227.776 177.43 228.204 177.306C228.956 177.09 229.867 176.814 230.747 176.543C231.628 176.272 232.479 176.006 233.11 175.807C233.425 175.707 233.686 175.625 233.867 175.567L234.078 175.5L234.133 175.482L234.147 175.478L234.151 175.477L234.152 175.476L234.152 175.476L234.138 175.431C234.138 175.431 234.138 175.431 234.138 175.431ZM220.18 176.477L220.18 176.477L220.18 176.477Z"
          fill="#444053" stroke="#1A1919"/>
    <path d="M202.007 26.7527C201.036 28.1669 200.141 29.6322 199.326 31.1424L199.325 31.1437C199.186 31.4021 199.047 31.6677 198.906 31.9402C197.913 33.7959 197.139 35.7606 196.598 37.795L196.597 37.795L196.595 37.8055C195.954 40.4407 196.009 43.1302 197.976 44.7723L202.007 26.7527ZM202.007 26.7527C199.615 25.1148 197.141 23.602 194.593 22.2205C193.787 21.8031 193.029 21.4501 192.372 21.2053C191.7 20.9548 191.187 20.8377 190.854 20.8463C190.692 20.8504 190.622 20.8837 190.599 20.8993C190.599 20.8996 190.598 20.8998 190.598 20.9001C190.59 20.9053 190.572 20.9176 190.56 20.9848C190.546 21.0722 190.55 21.2317 190.622 21.4912C190.694 21.7464 190.823 22.0695 191.026 22.4704L202.007 26.7527ZM185.29 42.5011L185.346 42.5188C185.476 42.56 185.667 42.6201 185.908 42.6951C186.391 42.8452 187.076 43.0551 187.885 43.2944C189.503 43.7732 191.609 44.3677 193.574 44.8344C194.597 45.0767 195.576 45.2832 196.424 45.4211C197.282 45.5604 197.974 45.6242 198.438 45.596C198.574 45.5878 198.673 45.5724 198.743 45.556C198.724 45.5259 198.699 45.4892 198.665 45.4453C198.532 45.2754 198.312 45.053 197.976 44.7725L185.29 42.5011ZM185.29 42.5011L183.495 40.2382L183.495 40.2381L183.193 39.8567L183.192 39.856L182.947 39.5466C184.417 38.2629 185.79 36.8721 187.055 35.3855C188.401 33.8456 189.553 32.1464 190.487 30.3257L190.491 30.3182L190.494 30.3106C190.514 30.2696 190.533 30.2283 190.553 30.1865C190.62 30.045 190.69 29.8992 190.753 29.7513L185.29 42.5011Z"
          stroke="#1A1919"/>
    <path d="M204.843 93.891L207.261 96.102L209.596 105.103H205.699L201.395 99.4952L204.843 93.891Z" fill="#444053"/>
    <path opacity="0.1"
          d="M201.395 99.4952L203.998 102.885L205.699 105.103H209.596L209.197 103.564L207.496 97.0057L207.261 96.102L204.843 93.891L201.541 99.2559L201.395 99.4952Z"
          fill="#1A1919"/>
    <path opacity="0.1"
          d="M204.952 94.6681L206.814 96.3711L207.012 97.1312L207.012 97.1317L208.713 103.689L208.713 103.689L208.95 104.603H205.946L204.395 102.581L204.395 102.58L202.001 99.4632L204.952 94.6681Z"
          fill="#1A1919" stroke="#1A1919"/>
    <path d="M192.543 124.185L192.542 124.185C191.419 123.756 190.437 123.387 189.736 123.126C189.583 123.069 189.444 123.017 189.319 122.971L206.589 104.42L210.786 104.945L210.789 104.946L211.057 104.981L211.086 104.988C211.124 104.998 211.181 105.012 211.255 105.031C211.405 105.07 211.626 105.127 211.913 105.204C212.488 105.357 213.325 105.585 214.375 105.886C216.474 106.489 219.423 107.383 222.816 108.548C229.607 110.88 238.156 114.289 245.242 118.607L245.242 118.607L245.254 118.614L254.363 123.83C254.368 123.835 254.374 123.84 254.381 123.847C254.416 123.877 254.468 123.925 254.534 123.991C254.665 124.122 254.852 124.321 255.06 124.587C255.478 125.12 255.98 125.917 256.315 126.965C256.977 129.037 257.013 132.185 254.235 136.358C251.381 140.647 249.656 143.33 248.643 144.942C248.136 145.748 247.808 146.287 247.605 146.625C247.504 146.795 247.434 146.914 247.389 146.992C247.368 147.028 247.352 147.056 247.341 147.075L232.753 166.083L232.74 166.099C232.724 166.116 232.702 166.142 232.674 166.176C232.617 166.243 232.535 166.341 232.433 166.466C232.228 166.718 231.941 167.082 231.609 167.531C230.946 168.43 230.098 169.68 229.369 171.08C228.643 172.475 228.019 174.046 227.83 175.58C227.641 177.123 227.887 178.668 228.952 179.936C230.311 181.569 231.797 183.091 233.398 184.487C234.094 185.108 234.834 185.679 235.61 186.197C235.61 186.283 235.609 186.388 235.609 186.507C235.607 186.857 235.603 187.328 235.596 187.809C235.588 188.291 235.577 188.781 235.561 189.17C235.554 189.331 235.547 189.472 235.539 189.587C235.366 189.605 235.127 189.618 234.835 189.625C234.185 189.641 233.322 189.63 232.455 189.608C231.589 189.586 230.727 189.553 230.08 189.525C229.757 189.511 229.488 189.498 229.3 189.489L229.096 189.479L222.648 186.66L222.643 186.658L215.86 183.612L213.783 181.224C213.819 181.16 213.86 181.086 213.905 181.004C214.092 180.666 214.36 180.179 214.685 179.584L214.685 179.583C215.653 177.805 217.12 175.053 218.402 172.408C219.043 171.085 219.64 169.784 220.106 168.642C220.567 167.511 220.915 166.5 221.036 165.771L221.036 165.771C221.173 164.946 221.853 162.998 222.953 160.415C224.045 157.854 225.528 154.72 227.236 151.549C228.945 148.377 230.876 145.176 232.861 142.478C234.855 139.768 236.873 137.608 238.748 136.47L238.989 136.324V136.043V136.029C239.01 135.852 239.022 135.479 238.817 135.096C238.58 134.653 238.108 134.301 237.323 134.171L237.32 134.17C237.074 134.131 236.825 134.112 236.575 134.114C235.3 134.114 230.705 134.15 226.914 134.185C223.222 134.214 219.543 133.758 215.969 132.83C213.532 132.194 210.692 131.427 208.245 130.682C207.021 130.309 205.901 129.943 204.981 129.604C204.05 129.261 203.359 128.956 202.97 128.711C202.057 128.136 200.325 127.345 198.41 126.536C196.482 125.721 194.328 124.874 192.543 124.185Z"
          fill="#1A1919" stroke="#1A1919"/>
    <path d="M214.685 179.584L214.685 179.583C215.653 177.805 217.12 175.053 218.402 172.408C219.043 171.085 219.64 169.784 220.106 168.642C220.48 167.724 220.78 166.885 220.944 166.212L232.132 166.844C231.977 167.041 231.801 167.272 231.609 167.531C230.946 168.43 230.098 169.68 229.369 171.08C228.643 172.475 228.019 174.046 227.83 175.58C227.641 177.123 227.887 178.668 228.952 179.936C230.311 181.569 231.797 183.091 233.398 184.488C234.094 185.108 234.834 185.68 235.61 186.197C235.61 186.207 235.61 186.218 235.61 186.229C235.609 186.309 235.609 186.402 235.609 186.507C235.607 186.857 235.603 187.328 235.596 187.809C235.588 188.291 235.577 188.781 235.561 189.17C235.554 189.331 235.547 189.472 235.539 189.587C235.366 189.605 235.127 189.618 234.835 189.625C234.185 189.641 233.322 189.63 232.455 189.608C231.589 189.586 230.727 189.553 230.08 189.525C229.757 189.511 229.488 189.498 229.3 189.489L229.096 189.479L222.648 186.66L222.643 186.658L215.86 183.612L213.783 181.224C213.819 181.16 213.86 181.086 213.905 181.004C214.092 180.666 214.36 180.179 214.685 179.584Z"
          fill="white" stroke="#1A1919"/>
    <path opacity="0.1"
          d="M213.172 181.284L215.551 184.02L222.443 187.117L228.979 189.974C228.979 189.974 235.875 190.331 235.993 189.974C236.11 189.617 236.11 185.927 236.11 185.927C235.271 185.384 234.475 184.778 233.728 184.113C232.99 184.509 232.152 185.252 232.962 186.402C232.962 186.402 234.21 187.874 233.276 188.01C232.341 188.145 229.888 187.61 229.888 187.61L214.331 179.394L214.242 179.334C213.586 180.53 213.172 181.284 213.172 181.284Z"
          fill="#1A1919"/>
    <path d="M226.811 177.963L226.812 177.963L226.812 177.963L226.812 177.963L226.812 177.963L227.347 178.181C227.355 178.188 227.363 178.195 227.372 178.202C228.043 178.761 229.065 179.683 230.136 180.669C231.204 181.653 232.313 182.695 233.155 183.49C233.576 183.887 233.93 184.223 234.178 184.458L234.466 184.733L234.533 184.796C235.632 186.329 237.702 187.432 239.416 188.143C240.295 188.508 241.109 188.781 241.702 188.963C242 189.054 242.243 189.122 242.412 189.168C242.497 189.191 242.563 189.208 242.609 189.22L242.662 189.234L242.676 189.237L242.68 189.238L242.681 189.238L242.681 189.238C242.681 189.238 242.681 189.238 242.799 188.753L242.681 189.238L242.781 189.263L242.882 189.246L242.882 189.246L242.883 189.246L242.883 189.246L242.883 189.246L242.889 189.245C242.896 189.244 242.906 189.242 242.92 189.24C242.949 189.236 242.993 189.231 243.049 189.225C243.163 189.213 243.324 189.202 243.513 189.201C243.899 189.199 244.365 189.244 244.765 189.403C245.154 189.557 245.455 189.807 245.599 190.22C245.751 190.652 245.763 191.353 245.36 192.469C245.204 192.901 244.851 193.267 244.273 193.567C243.691 193.869 242.915 194.084 241.987 194.219C240.132 194.488 237.785 194.424 235.458 194.211C233.138 193.998 230.867 193.639 229.173 193.333C228.327 193.18 227.627 193.041 227.138 192.94C226.894 192.889 226.703 192.848 226.573 192.82C226.508 192.806 226.459 192.795 226.426 192.787L226.391 192.78L226.371 192.774L226.268 192.743L225.874 192.628C225.534 192.527 225.046 192.383 224.454 192.207C223.269 191.855 221.669 191.376 220.004 190.869C216.653 189.848 213.106 188.73 212.117 188.289C211.802 188.148 211.618 187.875 211.541 187.439C211.461 186.988 211.511 186.422 211.634 185.837C211.755 185.26 211.939 184.704 212.094 184.289C212.171 184.083 212.24 183.913 212.29 183.796C212.292 183.791 212.294 183.786 212.296 183.782C212.415 183.685 212.492 183.554 212.546 183.442C212.696 183.133 212.871 182.536 213.073 181.35C213.159 180.849 213.51 180.039 214.038 179.057C214.556 178.095 215.213 177.023 215.861 176.017C216.51 175.013 217.146 174.082 217.62 173.401C217.799 173.145 217.954 172.924 218.079 172.749C218.211 172.868 218.37 173.012 218.55 173.173C219.089 173.654 219.818 174.296 220.577 174.934C221.334 175.57 222.13 176.21 222.8 176.684C223.134 176.92 223.448 177.124 223.718 177.266C223.853 177.337 223.988 177.399 224.117 177.441C224.235 177.48 224.4 177.52 224.572 177.495C224.928 177.443 225.464 177.54 225.967 177.681C226.207 177.748 226.42 177.819 226.573 177.874C226.65 177.901 226.71 177.924 226.752 177.94C226.772 177.948 226.788 177.954 226.798 177.958L226.809 177.962L226.811 177.963ZM234.512 184.747C234.519 184.535 234.605 184.384 234.715 184.279C234.731 184.295 234.747 184.31 234.762 184.324C234.841 184.398 234.89 184.446 234.906 184.461L234.512 184.747Z"
          fill="#444053" stroke="#1A1919"/>
    <path d="M184.944 18.7609V18.7605V18.7534C184.944 18.7534 184.944 18.7534 184.944 18.7533C184.945 16.0648 185.82 13.4499 187.438 11.305C189.056 9.16009 191.327 7.60221 193.908 6.8674C196.489 6.1326 199.239 6.26087 201.741 7.23281C204.243 8.20476 206.36 9.96742 207.772 12.2537C209.183 14.54 209.813 17.2252 209.564 19.9021C209.315 22.579 208.201 25.1015 206.392 27.0871C204.583 29.0726 202.177 30.413 199.539 30.9052C196.901 31.3974 194.175 31.0145 191.774 29.8146L191.771 29.813C191.356 29.6098 190.955 29.3813 190.569 29.1289L190.567 29.128C188.84 28.0081 187.421 26.4726 186.439 24.6617C185.456 22.8507 184.942 20.822 184.944 18.7609Z"
          fill="white" stroke="black"/>
    <path opacity="0.1"
          d="M188.441 123.18C188.441 123.18 190.121 123.795 192.363 124.652C193.772 123.409 195.216 122.209 195.818 121.991C197.127 121.512 201.406 119.012 201.288 118.298C201.171 117.583 203.071 114.847 204.733 114.369C206.394 113.89 205.446 111.393 205.446 111.393C205.446 111.393 208.655 110.204 209.454 108.536C210.252 106.868 212.698 104.724 211.864 104.846C211.502 104.787 211.157 104.652 210.851 104.449L206.398 103.892L188.441 123.18Z"
          fill="#1A1919"/>
    <path opacity="0.1"
          d="M184.412 104.457C184.412 104.457 178.828 107.614 176.746 107.614C174.663 107.614 184.412 104.457 184.412 104.457Z"
          fill="#1A1919"/>
    <path opacity="0.1"
          d="M188.142 106.868C188.142 106.868 179.827 109.668 179.827 111.868C179.827 114.068 179.049 105.975 188.142 106.868Z"
          fill="#1A1919"/>
    <path opacity="0.1" d="M208.049 94.2553L207.931 94.4159C207.985 94.3746 208.025 94.3189 208.049 94.2553Z"
          fill="#1A1919"/>
    <path opacity="0.1"
          d="M182.258 39.4809L182.8 40.1667L183.103 40.5489L184.993 42.9313C184.993 42.9313 189.504 44.3815 193.458 45.3209C197.576 46.296 201.089 46.7211 198.297 44.3886C196.564 42.942 196.45 40.5203 197.081 37.9236L196.956 37.7628C196.956 37.7628 197.081 40.1703 195.658 40.2167C193.74 40.2774 193.715 39.6309 191.946 38.8844C189.668 37.92 187.332 36.3091 186.676 35.0554C185.324 36.6463 183.846 38.1262 182.258 39.4809Z"
          fill="#1A1919"/>
    <path opacity="0.1"
          d="M174.446 105.489C175.419 105.905 176.514 105.931 177.505 105.56C181.188 104.367 187.015 101.495 189.746 102.753C191.935 103.76 200.753 103.731 204.009 102.885C204.818 102.674 205.282 102.413 205.21 102.106C205.164 101.752 205.207 101.393 205.335 101.06C205.713 99.8488 206.74 98.1665 207.507 97.0057L207.271 96.102L204.854 93.891L201.552 99.2488C196.378 98.4987 179.527 96.5842 175.615 102.821C175.09 103.644 174.696 104.544 174.446 105.489Z"
          fill="#1A1919"/>
    <path d="M172.513 102.537C172.512 102.532 172.511 102.526 172.509 102.52C172.499 102.478 172.485 102.415 172.467 102.33C172.432 102.161 172.383 101.909 172.332 101.583C172.23 100.931 172.118 99.9848 172.082 98.8176C172.012 96.482 172.247 93.2709 173.47 89.7697C174.12 87.9092 174.397 85.4508 174.453 82.8236C174.51 80.1875 174.345 77.3428 174.091 74.6898C173.586 69.3948 172.721 64.8085 172.532 64.1134C172.203 62.9046 171.358 56.9185 173.726 45.8938C174.875 40.545 178.061 38.0314 180.957 36.8355C182.415 36.2338 183.804 35.9648 184.829 35.8468C185.342 35.7879 185.761 35.7669 186.05 35.7605C186.079 35.7599 186.106 35.7594 186.132 35.759C186.254 36.0694 186.453 36.3704 186.686 36.6511C187.032 37.0698 187.494 37.4934 188.019 37.8998C189.071 38.7131 190.427 39.494 191.762 40.0592L191.762 40.0594C192.334 40.3009 192.675 40.5082 192.999 40.7055C193.168 40.8084 193.332 40.9086 193.523 41.0095C194.077 41.3032 194.651 41.4635 195.684 41.4308L195.685 41.4308C196.204 41.4138 196.593 41.1727 196.86 40.843C197.11 40.5351 197.25 40.1573 197.333 39.8224C197.542 40.1316 197.777 40.4976 198.013 40.9028C198.747 42.1653 199.445 43.7387 199.48 45.1473C199.503 46.1104 199.938 47.3052 200.543 48.5478C201.155 49.8071 201.975 51.1813 202.831 52.5224C203.559 53.6625 204.319 54.7882 205.006 55.8061C205.127 55.9862 205.247 56.163 205.363 56.3358C206.144 57.4951 206.786 58.4643 207.146 59.1257L207.146 59.1259C208.501 61.6144 208.381 63.737 207.938 65.2338C207.715 65.9875 207.409 66.5875 207.159 66.9974C207.034 67.202 206.925 67.3582 206.848 67.4613C206.809 67.5128 206.779 67.551 206.759 67.5752C206.756 67.5791 206.753 67.5827 206.751 67.5858C206.745 67.5925 206.741 67.5976 206.738 67.601L206.734 67.6053L206.734 67.6057L206.734 67.6059L206.734 67.606L206.733 67.6063L206.731 67.6091L207.111 67.9343C206.731 67.6091 206.731 67.6093 206.731 67.6095L206.73 67.61L206.729 67.6113L206.726 67.6145L206.718 67.6241C206.712 67.6319 206.703 67.6425 206.693 67.656C206.671 67.6829 206.641 67.7213 206.604 67.7715C206.53 67.8718 206.427 68.0191 206.303 68.2158C206.056 68.6093 205.727 69.2003 205.385 70.0084C204.7 71.6255 203.965 74.1067 203.72 77.6078L203.72 77.6109C203.561 80.1112 203.631 82.6208 203.929 85.1083C204.066 86.3185 204.228 87.3878 204.409 88.3301C204.409 88.33 204.409 88.3299 204.409 88.3297L172.513 102.537ZM172.513 102.537C172.522 102.556 172.535 102.581 172.551 102.613C172.591 102.689 172.653 102.801 172.739 102.932C172.911 103.197 173.173 103.535 173.534 103.837C174.235 104.425 175.336 104.906 176.995 104.37C177.824 104.102 178.765 103.747 179.771 103.368C179.865 103.332 179.959 103.297 180.055 103.261C181.161 102.844 182.332 102.408 183.476 102.048C184.618 101.688 185.753 101.399 186.787 101.283C187.813 101.167 188.796 101.215 189.599 101.584C189.88 101.714 190.332 101.837 190.938 101.942C191.535 102.046 192.252 102.128 193.044 102.187C194.627 102.304 196.488 102.329 198.257 102.267C200.028 102.205 201.687 102.056 202.87 101.831C203.467 101.718 203.91 101.591 204.18 101.463C204.252 101.429 204.301 101.4 204.333 101.378C204.297 101.114 204.33 100.831 204.391 100.562C204.463 100.241 204.585 99.8941 204.733 99.541C205.031 98.8343 205.456 98.0559 205.885 97.3404C206.315 96.6223 206.755 95.955 207.088 95.4679C207.173 95.3428 207.251 95.2295 207.32 95.13L172.513 102.537Z"
          fill="#1A1919" stroke="#1A1919"/>
    <path opacity="0.1"
          d="M189.807 83.2504C191.772 86.5717 194.401 89.4501 197.53 91.705C199.616 91.7224 201.7 91.8619 203.77 92.1229C203.592 91.1942 203.413 90.137 203.296 88.9368C203.001 86.479 202.932 83.9993 203.089 81.5288C202.746 81.3568 202.445 81.1136 202.204 80.8155C201.963 80.5174 201.788 80.1712 201.691 79.8C201.096 77.7748 195.793 68.1307 195.793 68.1307C195.793 68.1307 183.389 64.9161 182.957 68.1307C182.526 71.3454 186.715 77.8926 189.807 83.2504Z"
          fill="#1A1919"/>
    <path d="M235.397 82.6218L235.872 82.7797C235.893 82.7161 236.001 82.5293 236.255 82.2317C236.494 81.952 236.825 81.617 237.23 81.2629C238.042 80.5538 239.126 79.7897 240.321 79.2482C241.519 78.7054 242.793 78.4018 244.002 78.5636C245.193 78.7229 246.37 79.3389 247.391 80.7343C247.749 81.2253 247.987 81.7938 248.084 82.3939C248.182 82.9942 248.137 83.6091 247.953 84.1886L247.952 84.1904C247.55 85.4761 246.954 87.0695 246.269 88.0222C245.916 88.5135 245.621 88.7181 245.413 88.7509C245.272 88.7731 245 88.7354 244.603 88.1681C243.298 86.3001 241.806 85.5177 240.538 85.5695C239.259 85.6218 238.295 86.5441 238.295 87.7903C238.295 87.9353 238.259 88.0325 238.208 88.1066C238.154 88.1854 238.065 88.2657 237.92 88.3411C237.617 88.4988 237.16 88.5915 236.595 88.6376C236.087 88.679 235.544 88.6797 235.022 88.6804C234.973 88.6805 234.923 88.6805 234.874 88.6806C234.334 88.6817 233.783 88.6856 233.396 88.765L233.396 88.765C232.664 88.9154 230.19 89.575 228.079 90.1436L228.078 90.1437C225.642 90.8029 223.146 91.2174 220.628 91.3811L220.628 91.3811C218.527 91.5183 215.936 91.6434 213.599 91.631C212.431 91.6248 211.333 91.5842 210.397 91.4948C209.451 91.4046 208.704 91.2676 208.219 91.0839C206.83 90.555 204.957 90.2392 203.211 90.0472C201.454 89.854 199.785 89.782 198.784 89.7551L198.783 89.755C198.234 89.7417 197.704 89.5512 197.272 89.2116L197.272 89.2114C194.571 87.0922 192.286 84.4887 190.534 81.5335C188.988 78.8536 186.634 74.7541 184.72 70.9254C183.762 69.0096 182.92 67.1725 182.345 65.6212C182.057 64.8455 181.84 64.1503 181.708 63.5585C181.573 62.9586 181.535 62.501 181.577 62.1853C181.605 61.9737 181.725 61.7919 182.006 61.6293C182.303 61.4578 182.747 61.3311 183.329 61.2594C184.489 61.1165 186.03 61.2102 187.597 61.4098C189.156 61.6083 190.705 61.9066 191.867 62.1561C192.448 62.2807 192.93 62.3928 193.267 62.4737C193.392 62.5037 193.497 62.5293 193.58 62.5498C193.633 62.652 193.707 62.7921 193.798 62.9655C194.004 63.3572 194.298 63.9191 194.654 64.5997C195.364 65.961 196.318 67.7969 197.289 69.6957C198.261 71.595 199.25 73.5552 200.031 75.1657C200.821 76.7944 201.373 78.0124 201.505 78.4699C201.685 79.1329 202.07 79.7217 202.606 80.1509C203.13 80.5705 203.771 80.8162 204.44 80.8543L204.48 80.8637L204.72 80.9209C204.928 80.9703 205.226 81.0411 205.59 81.1267C206.318 81.2981 207.307 81.5291 208.353 81.7676C210.43 82.2415 212.767 82.7546 213.687 82.8781C214.594 82.9997 218.923 83.3878 223.002 83.7437C225.047 83.9221 227.036 84.093 228.514 84.2193C229.253 84.2824 229.864 84.3345 230.29 84.3707L230.784 84.4126L230.914 84.4236L230.947 84.4264L230.956 84.4271L230.958 84.4273L230.958 84.4273C230.958 84.4273 230.959 84.4273 230.964 84.3651L230.959 84.4273L230.972 84.4285L230.985 84.4289L231.001 83.9291C230.985 84.4289 230.985 84.4289 230.985 84.4289L230.986 84.4289L230.987 84.4289L230.99 84.429L230.999 84.4293L231.036 84.43C231.067 84.4306 231.111 84.4313 231.168 84.4315C231.281 84.4321 231.442 84.4312 231.636 84.4255C232.022 84.4143 232.547 84.3839 233.092 84.3062C233.631 84.2294 234.216 84.1026 234.71 83.8871C235.19 83.6778 235.686 83.3392 235.872 82.7793L235.397 82.6218ZM235.397 82.6218C235.832 81.3145 243.409 74.4458 247.795 80.4394L235.397 82.6218Z"
          fill="white" stroke="#1A1919"/>
    <path opacity="0.1"
          d="M191.422 42.4562C191.422 42.4562 195.433 49.1249 197.291 53.8862C199.149 58.6475 201.406 66.9842 201.406 66.9842L190.231 65.6733L189.282 64.1267C189.282 64.1267 181.303 69.1273 182.255 71.2704C183.207 73.4136 180.115 68.0558 180.354 61.9836C180.593 55.9114 179.495 45.0744 180.354 42.4562C181.213 39.8381 188.794 40.431 191.422 42.4562Z"
          fill="#1A1919"/>
    <path d="M180.868 61.2889L180.868 61.288C180.963 58.7694 180.831 55.4406 180.704 52.2346C180.677 51.545 180.65 50.861 180.626 50.192C180.556 48.2946 180.507 46.5159 180.527 45.0508C180.549 43.5638 180.643 42.4708 180.829 41.8988C180.854 41.8231 180.887 41.7503 180.928 41.6815C181.195 41.232 181.87 40.8621 182.905 40.6578C183.283 40.5875 183.665 40.5413 184.048 40.5194L184.048 40.5195L184.051 40.5193C185.3 40.4404 186.719 40.5682 188.01 40.861C189.267 41.1459 190.353 41.5758 191.044 42.0827C191.07 42.1263 191.106 42.1868 191.151 42.2628C191.253 42.4338 191.401 42.6837 191.584 42.9986C191.951 43.6285 192.461 44.5178 193.031 45.5546L193.03 45.5546L193.033 45.559C194.452 48.0804 195.719 50.6849 196.827 53.3584C197.747 55.7179 198.77 58.9728 199.566 61.6488C199.963 62.9856 200.303 64.174 200.543 65.0282C200.613 65.2778 200.675 65.4989 200.727 65.6867L190.536 64.4909L189.724 63.1531L189.461 62.7192L189.031 62.9887L189.297 63.4124C189.031 62.9887 189.031 62.9887 189.031 62.9888L189.031 62.989L189.03 62.9898L189.025 62.9928L189.007 63.0041L188.939 63.0476C188.879 63.0855 188.793 63.1411 188.683 63.2125C188.464 63.3552 188.153 63.561 187.782 63.8147C187.043 64.3213 186.063 65.0216 185.111 65.7919C184.164 66.5581 183.223 67.4111 182.575 68.224C182.392 68.4531 182.226 68.6863 182.09 68.92C182.08 68.891 182.07 68.8617 182.059 68.8321C181.447 67.0344 180.752 64.2416 180.868 61.2889Z"
          fill="#E58E37" stroke="#1A1919"/>
    <path opacity="0.1"
          d="M175.376 77.8926C175.376 77.8926 180.101 84.4113 181.527 84.5899C181.517 84.6042 175.455 83.2504 175.376 77.8926Z"
          fill="#1A1919"/>
    <path opacity="0.1"
          d="M175.376 87.1795C175.376 87.1795 184.291 96.1985 187.143 96.2878C189.996 96.377 175.376 87.1795 175.376 87.1795Z"
          fill="#1A1919"/>
    <path opacity="0.1"
          d="M175.377 90.9442C175.377 90.9442 181.082 97.6415 181.438 97.6415C181.795 97.6415 175.277 95.3198 175.377 90.9442Z"
          fill="#1A1919"/>
    <path opacity="0.1"
          d="M180.486 41.4275C181.403 41.2906 182.289 40.9932 183.103 40.5489C183.41 40.3881 183.713 40.2095 184.009 40.0202C185.178 39.2364 186.267 38.3391 187.261 37.3413C188.901 35.7447 190.538 34.0016 191.215 31.8121C191.368 31.3074 191.48 30.7915 191.55 30.269C191.957 27.5223 191.615 24.4898 193.576 22.6217C193.944 22.2733 194.367 21.9874 194.827 21.7752C197.608 20.45 201.641 21.3072 203.716 18.9177C205.036 17.4032 205.004 15.2994 206.016 13.6527C206.458 12.9384 207.271 12.3204 207.992 11.6632C206.943 10.0636 205.55 8.71872 203.917 7.72667C202.283 6.73463 200.449 6.12045 198.548 5.92893C196.647 5.73741 194.727 5.97337 192.929 6.61962C191.13 7.26588 189.499 8.30611 188.153 9.66444C186.807 11.0228 185.781 12.6649 185.149 14.4711C184.517 16.2774 184.296 18.2021 184.501 20.1049C184.706 22.0076 185.333 23.8405 186.335 25.4698C187.338 27.0991 188.691 28.4836 190.295 29.5225C190.217 29.7047 190.131 29.8797 190.042 30.069C187.593 35.0696 182.258 39.4559 182.258 39.4559L182.8 40.1417C181.72 40.3881 180.868 40.7846 180.486 41.4275Z"
          fill="#1A1919"/>
    <g opacity="0.1">
        <g opacity="0.1">
            <mask id="path-95-inside-1" fill="white">
                <path d="M125.586 27.9938C125.83 28.3446 125.965 28.7595 125.974 29.1868C125.96 29.3374 125.918 29.484 125.85 29.619C124.801 27.7687 123.71 25.8078 123.536 23.7433C123.999 25.2184 124.816 26.6365 125.586 27.9938Z"/>
            </mask>
            <path d="M125.586 27.9938C125.83 28.3446 125.965 28.7595 125.974 29.1868C125.96 29.3374 125.918 29.484 125.85 29.619C124.801 27.7687 123.71 25.8078 123.536 23.7433C123.999 25.2184 124.816 26.6365 125.586 27.9938Z"
                  fill="#1A1919"/>
            <path d="M125.586 27.9938L124.716 28.4873L124.739 28.5269L124.765 28.5644L125.586 27.9938ZM125.974 29.1868L126.97 29.2806L126.976 29.2224L126.974 29.164L125.974 29.1868ZM125.85 29.619L124.98 30.1119L125.9 31.7357L126.742 30.0703L125.85 29.619ZM123.536 23.7433L124.49 23.4435L122.539 23.8276L123.536 23.7433ZM124.765 28.5644C124.896 28.7539 124.969 28.9784 124.975 29.2096L126.974 29.164C126.96 28.5406 126.763 27.9352 126.407 27.4232L124.765 28.5644ZM124.979 29.0929C124.976 29.119 124.969 29.1443 124.957 29.1676L126.742 30.0703C126.867 29.8237 126.944 29.5558 126.97 29.2806L124.979 29.0929ZM126.72 29.126C125.65 27.2382 124.685 25.468 124.532 23.6589L122.539 23.8276C122.735 26.1476 123.953 28.2993 124.98 30.1119L126.72 29.126ZM122.582 24.043C123.083 25.6394 123.96 27.1545 124.716 28.4873L126.456 27.5003C125.671 26.1184 124.915 24.7974 124.49 23.4435L122.582 24.043Z"
                  fill="#1A1919" mask="url(#path-95-inside-1)"/>
        </g>
        <path opacity="0.1"
              d="M116.56 43.2867C116.343 43.0896 116.158 42.8607 116.011 42.6083C116.362 42.844 116.741 43.0407 117.086 43.2199C117.222 43.2904 117.352 43.3583 117.474 43.4246C117.891 43.6523 118.23 43.8734 118.479 44.1423L118.191 44.2853C117.62 44.0006 117.074 43.6665 116.56 43.2867Z"
              fill="#1A1919" stroke="#1A1919"/>
        <path opacity="0.1"
              d="M190.506 31.4514C190.855 30.3273 190.953 29.0968 191.05 27.879C191.219 25.7575 191.385 23.6747 192.867 22.261C194.157 21.0276 196.016 20.774 197.865 20.5219C199.823 20.255 201.768 19.9897 203.011 18.5641C203.753 17.7107 204.067 16.6702 204.382 15.6298C204.625 14.8238 204.869 14.0179 205.311 13.2992L190.506 31.4514ZM190.506 31.4514C189.829 33.6409 188.196 35.3804 186.556 36.9806L190.506 31.4514ZM190.059 31.2021C190.197 30.735 190.292 30.2442 190.363 29.7351L190.15 29.669C189.472 31.8585 187.839 33.6016 186.199 35.1982C183.807 37.5271 180.754 39.8917 177.488 39.2237M190.059 31.2021C189.196 32.8877 187.845 34.2935 186.548 35.5565C185.341 36.7315 183.941 37.9426 182.41 38.7741C180.876 39.6076 179.174 40.0788 177.388 39.7137M190.059 31.2021C190.049 31.236 190.039 31.2697 190.029 31.3033L190.029 31.3036C189.393 33.3582 187.85 35.0189 186.207 36.6223C185.021 37.7762 183.699 38.9118 182.289 39.6778C180.883 40.4418 179.425 40.8189 177.945 40.5162L177.945 40.5162C177.5 40.4253 177.048 40.2717 176.575 40.093C176.419 40.0342 176.258 39.9713 176.094 39.9074C175.776 39.7833 175.447 39.6552 175.129 39.545C174.154 39.2077 173.073 38.9627 171.971 39.3565L171.971 39.3568C171.419 39.555 170.963 39.8864 170.568 40.2418C170.286 40.4954 170.014 40.7815 169.761 41.0477C169.668 41.1462 169.577 41.2419 169.489 41.3322C167.201 43.6666 164.227 45.2066 161.003 45.7274L160.987 45.7299L160.972 45.7333C160.409 45.8608 159.823 45.835 159.273 45.6586C158.891 45.4982 158.574 45.2007 158.207 44.8099C158.161 44.7612 158.114 44.7107 158.066 44.6589C157.953 44.5372 157.833 44.4085 157.706 44.2801C157.952 44.4878 158.231 44.6767 158.555 44.8087L158.571 44.8154L158.588 44.821C159.309 45.057 160.08 45.0945 160.821 44.9298C164.251 44.3725 167.413 42.7325 169.848 40.2488L169.85 40.2466C169.951 40.1424 170.048 40.04 170.143 39.9398C170.391 39.6781 170.625 39.4309 170.88 39.202C171.224 38.8928 171.569 38.6532 171.952 38.5155C172.715 38.242 173.515 38.3877 174.44 38.7078C174.74 38.8116 175.033 38.9257 175.337 39.0442C175.507 39.1105 175.681 39.1782 175.861 39.2462C176.348 39.4301 176.862 39.6064 177.388 39.7137M190.059 31.2021C190.286 30.7604 190.478 30.2994 190.628 29.8168L177.488 39.2237M177.388 39.7137L177.488 39.2237M177.388 39.7137C177.388 39.7136 177.388 39.7136 177.388 39.7136L177.488 39.2237M150.613 43.7532L150.617 43.7512C151.546 43.2385 152.532 42.7193 153.494 42.4594C154.448 42.2013 155.302 42.2185 156.027 42.684C156.363 42.9 156.641 43.1979 156.968 43.5488C157.018 43.6023 157.069 43.657 157.122 43.7129C157.187 43.782 157.254 43.8527 157.324 43.9236C157.198 43.8167 157.065 43.7155 156.925 43.6251L156.924 43.6248C155.868 42.9478 154.687 42.979 153.588 43.2764C152.496 43.5718 151.413 44.1488 150.492 44.6573C145.379 47.4299 139.736 49.0802 133.937 49.4981C128.529 49.8879 123.102 49.1975 117.969 47.4715L118.726 47.0958C123.968 48.6465 129.463 49.1579 134.902 48.6008C140.406 48.0369 145.746 46.3895 150.613 43.7532ZM203.711 16.1078C203.452 16.913 203.158 17.632 202.634 18.2354C201.569 19.457 199.901 19.7387 197.961 20.0042C197.887 20.0143 197.813 20.0244 197.738 20.0345C195.941 20.2784 193.932 20.5512 192.521 21.8995C192.149 22.2554 191.853 22.6475 191.616 23.0647C191.849 22.1983 192.221 21.4459 192.856 20.8403C194.03 19.7206 195.743 19.4862 197.66 19.2239L197.743 19.2126C199.606 18.9575 201.679 18.6605 203.031 17.1104L203.032 17.1096C203.307 16.7932 203.528 16.4553 203.711 16.1078ZM204.885 13.0372C204.818 13.1461 204.755 13.2568 204.696 13.369C204.88 12.7974 205.08 12.2666 205.38 11.779C205.56 11.487 205.822 11.2002 206.144 10.8972C206.344 10.7084 206.547 10.5315 206.758 10.347C206.896 10.2266 207.038 10.103 207.186 9.97063C207.548 9.64483 207.928 9.28106 208.236 8.863C208.237 8.87434 208.237 8.88568 208.237 8.89703C208.217 9.61174 207.746 10.2115 207.02 10.8824C206.842 11.0462 206.657 11.2078 206.466 11.3743L206.465 11.3751C206.276 11.5402 206.081 11.7103 205.894 11.8833C205.523 12.2269 205.156 12.6054 204.887 13.0338L204.885 13.0372Z"
              fill="#1A1919" stroke="#1A1919"/>
    </g>
    <path opacity="0.1"
          d="M238.488 135.993L241.487 134.539V133.971C241.487 133.753 239.095 134.235 237.24 134.646C238.574 134.882 238.521 135.778 238.488 135.993Z"
          fill="#1A1919"/>
    <path d="M247.819 94.3411C247.819 99.0247 244.721 102.646 241.095 102.646C237.469 102.646 234.371 99.0247 234.371 94.3411C234.371 89.6575 237.469 86.0364 241.095 86.0364C244.721 86.0364 247.819 89.6575 247.819 94.3411Z"
          fill="#E58E37" stroke="#1A1919"/>
    <path d="M132.483 83.3826H170.347L159.75 93.8518L122.937 93.2077L132.483 83.3826Z" fill="#E58E37" stroke="#1A1919"/>
    <path d="M160.452 131.625V94.5643L171.065 84.0794V121.91L160.452 131.625Z" fill="white" stroke="#1A1919"/>
    <path d="M159.452 132.26H122.274V94.1963L159.452 94.8467V132.26Z" fill="#E58E37" stroke="#1A1919"/>
    <path d="M156.849 105.11L128.456 100.227L124.755 118.901L153.986 124.28L156.849 105.11Z" fill="white"/>
    <path d="M151.241 109.471L132.154 106.468L131.676 108.961L150.763 112.204L151.241 109.471Z" fill="#E58E37"/>
    <path d="M145.992 114.804L135.135 113.225L134.657 115.994L145.992 117.587V114.804Z" fill="#E58E37"/>
    <path d="M166.869 103.481L166.352 88.0296L163.367 90.98L163.888 106.468L166.869 103.481Z" fill="#75420F"/>
    <path d="M128.431 86.8366L165.118 87.3331L166.352 88.0296L163.367 90.98L162.337 90.3728L125.999 89.3405L128.431 86.8366Z"
          fill="#75420F"/>
    <path d="M211 0.999985C218.2 2.59999 209.667 9.16669 207.5 12C206.667 15 206 22.5 202 23C198 23.5 196 21.5 193.5 22.5C191 23.5 192.5 30 190.5 30C188 28.5 188.5 28.5 188 27C184.346 26 183 17 184 12C184.8 8.00001 188 3.50001 193.5 6.50001C195.5 1.50002 203.8 -0.600015 211 0.999985Z"
          fill="#1A1919"/>
    <path d="M171.5 118.5V100.5H188.5L198.5 98L208 95L209.5 104C206.333 110.5 195.4 124.3 189 125.5C182.6 126.7 174.667 121.333 171.5 118.5Z"
          fill="#1A1919"/>
</svg>
