<?xml version="1.0" encoding="utf-8"?>
<!-- Generator: Adobe Illustrator 23.0.3, SVG Export Plug-In . SVG Version: 6.00 Build 0)  -->
<svg version="1.1" id="Icons" xmlns="http://www.w3.org/2000/svg" xmlns:xlink="http://www.w3.org/1999/xlink" x="0px" y="0px"
	 viewBox="0 0 32 32" style="enable-background:new 0 0 32 32;" xml:space="preserve">
<path d="M32,21.7c-0.1-0.6-0.2-1.1-0.4-1.7H26c-0.6,0-1-0.4-1-1s0.4-1,1-1h4.7c-0.7-1.2-1.6-2.2-2.7-3c0.5,0,0.9-0.5,0.9-1
	c0-2.2-1.8-4-4-4h-4c-2.2,0-4,1.8-4,4c0,0.6,0.4,1,1,1v3h-5.7c-0.7,0-1.3-0.6-1.3-1.3V10h1c0.6,0,1-0.4,1-1s-0.4-1-1-1H9.8
	C9.4,6.8,8.3,6,7,6H5C4.4,6,4,6.4,4,7v4c0,0.6,0.4,1,1,1h2c0,0,0.1,0,0.1,0L5,17c-2.8,0-5,2.2-5,5c0,2.8,2.2,5,5,5
	c2.4,0,4.4-1.7,4.9-4h10.2c0.5,2.3,2.5,4,4.9,4s4.4-1.7,4.9-4H31c0.3,0,0.6-0.1,0.8-0.3s0.3-0.5,0.2-0.8L32,21.7z M5,25
	c-1.7,0-3-1.3-3-3c0-1.4,0.9-2.5,2.2-2.9C3.9,20,4,20.9,4.5,21.7C5.1,22.5,6,23,7,23h0.8C7.4,24.2,6.3,25,5,25z M25,25
	c-1.3,0-2.4-0.8-2.8-2h5.6C27.4,24.2,26.3,25,25,25z"/>
</svg>
